<svg xmlns="http://www.w3.org/2000/svg" width="940" height="450.92" viewBox="0 0 940 450.92"><title>development_security_bottleneck</title><g style="isolation:isolate"><path d="M769.94,280.77l-4-1.07a1.57,1.57,0,0,1-1.13-1.93l-.08.28c.23-.85-.45-1.07-1.3-1.29l-6.95-1.83c-.85-.23-1.55-.37-1.77.48l.07-.29a1.57,1.57,0,0,1-1.93,1.13l-109.9-29s-16.17,62.26-16.33,62l109.89,29c.85.22,1.58.25,1.35,1.1a1.59,1.59,0,0,0,1.13,1.94l7,1.83a1.58,1.58,0,0,0,1.94-1.13c.22-.85.87-.51,1.72-.29l4,1.06Z" fill="#f63"/><line x1="707.36" y1="213.34" x2="707.36" y2="241.16" fill="none" stroke="#f63" stroke-miterlimit="10" stroke-width="2"/><polygon points="699.18 234.53 700.64 233.17 707.35 240.39 714.07 233.17 715.53 234.53 707.35 243.33 699.18 234.53" fill="#f63"/><path d="M140.82,239.41,532.67,342.68c19.92,5.25,41.2-3.59,53-22l6.71-10.52a25.8,25.8,0,0,1,28.08-11.48l11.91-45.21-.12,0a25.87,25.87,0,0,1-18.91-23.24l-.71-9.27c-1.62-21.19-15.74-38.86-35.14-44L184.57,73.42Z" fill="#d0f1f7" style="mix-blend-mode:multiply"/><line x1="291.13" y1="92.76" x2="242.68" y2="276.62" fill="none" stroke="#fff" stroke-miterlimit="10" stroke-width="2"/><line x1="405.5" y1="122.9" x2="357.04" y2="306.76" fill="none" stroke="#fff" stroke-miterlimit="10" stroke-width="2"/><line x1="519.86" y1="153.04" x2="471.41" y2="336.9" fill="none" stroke="#fff" stroke-miterlimit="10" stroke-width="2"/><path d="M793,409.28a16.8,16.8,0,0,1-16.78-16.78c0-6.15,8.58-23.44,16.78-37.77,8.2,14.33,16.78,31.62,16.78,37.77A16.8,16.8,0,0,1,793,409.28Z" fill="#b2ddd0" style="mix-blend-mode:multiply"/><polyline points="305.82 43.15 637.1 131.78 638.96 124.78 652.79 145.2 630.64 156.07 632.47 149.18 632.5 149.08 335.92 69.63" fill="none" stroke="#4c5054" stroke-miterlimit="10" stroke-width="2"/><polyline points="305.82 43.15 637.1 131.78 638.96 124.78 652.79 145.2 630.64 156.07 632.47 149.18 632.5 149.08 335.92 69.63" fill="none" stroke="#4c5054" stroke-miterlimit="10" stroke-width="2"/><path d="M206,226l-12.46-3.28L195,217.2a7.52,7.52,0,0,1,1-2.45,2.84,2.84,0,0,1,1.55-1.07,3.61,3.61,0,0,1,2,0,3.2,3.2,0,0,1,2,1.44,4.49,4.49,0,0,1,.46,3,4.33,4.33,0,0,1,.88-.83,8.39,8.39,0,0,1,2-.93l4-1.28-.54,2.08-3,1c-.88.29-1.55.53-2,.74a3.7,3.7,0,0,0-1.05.62,2.17,2.17,0,0,0-.53.66,5.86,5.86,0,0,0-.31.9l-.5,1.92,5.53,1.46Zm-6.53-3.48.94-3.54a5.59,5.59,0,0,0,.23-1.83,2,2,0,0,0-.49-1.17,2.08,2.08,0,0,0-1-.62,2,2,0,0,0-1.63.25,3.12,3.12,0,0,0-1.1,1.88l-1,3.94Z" fill="#4c5054"/><path d="M208,206.71l.62-1.53a4,4,0,0,1,1.78,1.95,4.38,4.38,0,0,1,.09,2.79,4.27,4.27,0,0,1-2.05,2.82,5,5,0,0,1-3.73.26,5.15,5.15,0,0,1-3.22-2.11,4.07,4.07,0,0,1-.46-3.37,4,4,0,0,1,2-2.64,5.12,5.12,0,0,1,3.77-.23l.41.12-1.78,6.73a3.64,3.64,0,0,0,2.5-.24,2.62,2.62,0,0,0,1.29-1.68,2.43,2.43,0,0,0-.06-1.56A3,3,0,0,0,208,206.71Zm-3.79,4.37,1.33-5a3.15,3.15,0,0,0-1.86.13,2.45,2.45,0,0,0-1.39,1.66,2.56,2.56,0,0,0,.24,2A2.88,2.88,0,0,0,204.19,211.08Z" fill="#4c5054"/><path d="M216.79,199.13,212.37,198a2.82,2.82,0,0,1,.57,1.22,3,3,0,0,1,0,1.45,3.73,3.73,0,0,1-2,2.43,5.27,5.27,0,0,1-3.82.23,6.2,6.2,0,0,1-2.32-1.12,3.65,3.65,0,0,1-1.28-1.79,3.82,3.82,0,0,1,0-2.12,3.1,3.1,0,0,1,2.1-2.26l-1.21-.32.37-1.38,12.48,3.29Zm-9.24,2.61a4.11,4.11,0,0,0,2.8,0,2.29,2.29,0,0,0,1.34-1.52,2.21,2.21,0,0,0-.39-1.9,3.88,3.88,0,0,0-2.33-1.37,4.32,4.32,0,0,0-2.91,0,2.26,2.26,0,0,0-1.37,1.5,2.2,2.2,0,0,0,.4,1.91A4.24,4.24,0,0,0,207.55,201.74Z" fill="#4c5054"/><path d="M215.92,188.38,214.6,188a3.42,3.42,0,0,1,.77,3.27,3.74,3.74,0,0,1-.7,1.41,2.44,2.44,0,0,1-1,.82,2.92,2.92,0,0,1-1.25.18,7.74,7.74,0,0,1-1.46-.29L205.33,192l.4-1.53,5,1.32a9.22,9.22,0,0,0,1.64.33,1.65,1.65,0,0,0,1.11-.36,2,2,0,0,0,.65-1.07,2.59,2.59,0,0,0,0-1.38,2,2,0,0,0-.73-1.11,5,5,0,0,0-1.7-.71l-4.83-1.28.4-1.53,9,2.38Z" fill="#4c5054"/><path d="M206.22,181.79l-1.76-.47.4-1.53,1.76.47Zm10.7,2.82-9-2.38.41-1.53,9,2.38Z" fill="#4c5054"/><path d="M217.93,180.77l-9-2.38.36-1.38,1.37.36a3.78,3.78,0,0,1-1-1.31,1.75,1.75,0,0,1,0-1.06,3.06,3.06,0,0,1,.91-1.44l1.28.9a2.26,2.26,0,0,0-.63,1,1.5,1.5,0,0,0,.06,1,1.69,1.69,0,0,0,.69.79,6,6,0,0,0,1.72.73l4.72,1.24Z" fill="#4c5054"/><path d="M218.18,168l.62-1.53a4,4,0,0,1,1.78,2,4.35,4.35,0,0,1,.09,2.78,4.25,4.25,0,0,1-2,2.82,4.92,4.92,0,0,1-3.73.26,5.14,5.14,0,0,1-3.22-2.1,4.09,4.09,0,0,1-.46-3.38,4,4,0,0,1,2-2.63A5,5,0,0,1,217,166l.41.11-1.78,6.73a3.53,3.53,0,0,0,2.5-.24,2.57,2.57,0,0,0,1.29-1.68,2.4,2.4,0,0,0-.06-1.55A3,3,0,0,0,218.18,168Zm-3.79,4.37,1.33-5a3.15,3.15,0,0,0-1.86.13,2.43,2.43,0,0,0-1.39,1.66,2.56,2.56,0,0,0,.24,2A2.88,2.88,0,0,0,214.39,172.38Z" fill="#4c5054"/><path d="M222,165.27l-9-2.38.36-1.37,1.27.34a3.29,3.29,0,0,1-.75-3.13,3,3,0,0,1,.85-1.53,2.29,2.29,0,0,1,1.4-.6,3.34,3.34,0,0,1-.85-3.2,2.85,2.85,0,0,1,1.29-1.87,3.3,3.3,0,0,1,2.48-.12l6.2,1.63-.4,1.52-5.69-1.5a4.61,4.61,0,0,0-1.36-.2,1.35,1.35,0,0,0-.79.37,1.67,1.67,0,0,0-.49.86,2.15,2.15,0,0,0,.22,1.74,2.9,2.9,0,0,0,1.86,1.17l5.24,1.38-.4,1.53-5.87-1.55a2.67,2.67,0,0,0-1.63,0,1.49,1.49,0,0,0-.83,1.09,2.36,2.36,0,0,0,0,1.29,2,2,0,0,0,.78,1,5.92,5.92,0,0,0,1.82.75l4.69,1.23Z" fill="#4c5054"/><path d="M224.56,143.83l.61-1.53a3.94,3.94,0,0,1,1.78,1.95A4.31,4.31,0,0,1,227,147a4.23,4.23,0,0,1-2,2.81,4.92,4.92,0,0,1-3.73.26A5.16,5.16,0,0,1,218,148a4.12,4.12,0,0,1-.46-3.38,4,4,0,0,1,2-2.63,5,5,0,0,1,3.77-.23l.41.11L222,148.61a3.54,3.54,0,0,0,2.5-.24,2.59,2.59,0,0,0,1.28-1.68,2.4,2.4,0,0,0-.06-1.55A3.06,3.06,0,0,0,224.56,143.83Zm-3.8,4.37,1.33-5a3.15,3.15,0,0,0-1.86.13,2.43,2.43,0,0,0-1.39,1.66,2.56,2.56,0,0,0,.24,2A2.94,2.94,0,0,0,220.76,148.2Z" fill="#4c5054"/><path d="M228.39,141.09l-9-2.38.36-1.37,1.29.33a3.34,3.34,0,0,1-.73-3.26A3.76,3.76,0,0,1,221,133a2.36,2.36,0,0,1,1-.82,2.88,2.88,0,0,1,1.26-.18,9.81,9.81,0,0,1,1.51.3l5.55,1.47-.4,1.53-5.49-1.45a4.35,4.35,0,0,0-1.45-.19,1.53,1.53,0,0,0-.91.44,2.08,2.08,0,0,0-.55,1,2.56,2.56,0,0,0,.17,1.85,3.12,3.12,0,0,0,2.17,1.33l4.93,1.3Z" fill="#4c5054"/><path d="M230.45,127.71l1.41.14a5.67,5.67,0,0,1-.17,1.19,2.83,2.83,0,0,1-.6,1.22,1.55,1.55,0,0,1-.87.46,5.41,5.41,0,0,1-1.85-.29l-5.2-1.36-.29,1.12-1.19-.32.3-1.12-2.24-.59-.52-1.76,3.16.83.4-1.54L224,126l-.4,1.53,5.27,1.4a3,3,0,0,0,.87.14.63.63,0,0,0,.36-.19,1,1,0,0,0,.25-.49A4,4,0,0,0,230.45,127.71Z" fill="#4c5054"/><path d="M229.36,126.48l.16-1.58a2.18,2.18,0,0,0,1.58-.34,2.54,2.54,0,0,0,.91-1.5,2.43,2.43,0,0,0,0-1.68,1.3,1.3,0,0,0-.87-.77,1,1,0,0,0-.93.23,7.13,7.13,0,0,0-.93,1.43,14.86,14.86,0,0,1-1.35,2.14,2.32,2.32,0,0,1-2.42.78,2.51,2.51,0,0,1-1.7-1.55,3,3,0,0,1-.19-1.09,5,5,0,0,1,.16-1.37,5.58,5.58,0,0,1,.8-1.79,2.65,2.65,0,0,1,1.14-1,3.24,3.24,0,0,1,1.54-.16l-.19,1.55a1.64,1.64,0,0,0-1.24.3,2.24,2.24,0,0,0-.76,1.28A2.63,2.63,0,0,0,225,123a1.05,1.05,0,0,0,.7.67.83.83,0,0,0,.58,0,1.43,1.43,0,0,0,.57-.47c.09-.14.34-.56.74-1.25a19.52,19.52,0,0,1,1.31-2.08A2.37,2.37,0,0,1,230,119a2.4,2.4,0,0,1,1.41,0,2.7,2.7,0,0,1,1.32.83,3,3,0,0,1,.7,1.56,4.75,4.75,0,0,1-.13,2,4.35,4.35,0,0,1-1.44,2.49A3.49,3.49,0,0,1,229.36,126.48Z" fill="#4c5054"/><path d="M326.32,228.77l-12.46-3.28L315,221.2a10.7,10.7,0,0,1,.77-2.18,4.36,4.36,0,0,1,1.37-1.59,5.28,5.28,0,0,1,2.52-.91,8.65,8.65,0,0,1,3.09.29,9,9,0,0,1,2.43,1,6.34,6.34,0,0,1,1.59,1.32,5,5,0,0,1,.83,1.44,4.71,4.71,0,0,1,.23,1.65,8.66,8.66,0,0,1-.31,2.06Zm-1-2,.7-2.65a7,7,0,0,0,.28-2,2.92,2.92,0,0,0-.35-1.29,4.25,4.25,0,0,0-1.34-1.33,8,8,0,0,0-2.32-1,5.93,5.93,0,0,0-3.17-.14,3.33,3.33,0,0,0-1.82,1.18,7,7,0,0,0-.81,2.07l-.69,2.62Z" fill="#4c5054"/><path d="M328.3,209.45l.62-1.53a4.07,4.07,0,0,1,1.78,2,4.38,4.38,0,0,1,.09,2.79,4.27,4.27,0,0,1-2.05,2.82,5,5,0,0,1-3.73.26,5.11,5.11,0,0,1-3.22-2.11,4.06,4.06,0,0,1-.46-3.37,4,4,0,0,1,2-2.63,5.07,5.07,0,0,1,3.77-.24l.41.12-1.78,6.73a3.64,3.64,0,0,0,2.5-.24,2.62,2.62,0,0,0,1.29-1.68,2.4,2.4,0,0,0-.06-1.55A3,3,0,0,0,328.3,209.45Zm-3.79,4.37,1.33-5a3.15,3.15,0,0,0-1.86.13,2.45,2.45,0,0,0-1.39,1.66,2.55,2.55,0,0,0,.24,2A2.84,2.84,0,0,0,324.51,213.82Z" fill="#4c5054"/><path d="M329.28,206.62l.16-1.58a2.18,2.18,0,0,0,1.58-.34,3.15,3.15,0,0,0,.9-3.18,1.34,1.34,0,0,0-.88-.77,1,1,0,0,0-.93.23,7.13,7.13,0,0,0-.93,1.43,14.86,14.86,0,0,1-1.35,2.14,2.32,2.32,0,0,1-2.42.78,2.46,2.46,0,0,1-1-.57,2.5,2.5,0,0,1-.66-1,3.28,3.28,0,0,1-.19-1.09,4.72,4.72,0,0,1,.17-1.37,5.45,5.45,0,0,1,.79-1.79,2.65,2.65,0,0,1,1.14-1,3.24,3.24,0,0,1,1.54-.16L327,200a1.64,1.64,0,0,0-1.24.3,2.24,2.24,0,0,0-.76,1.28,2.67,2.67,0,0,0-.05,1.6,1.06,1.06,0,0,0,.7.66.92.92,0,0,0,.59,0,1.62,1.62,0,0,0,.56-.48c.1-.14.35-.56.75-1.25a19.9,19.9,0,0,1,1.3-2.08,2.5,2.5,0,0,1,1.07-.8,2.4,2.4,0,0,1,1.41,0,2.66,2.66,0,0,1,1.32.83,3,3,0,0,1,.71,1.56,4.93,4.93,0,0,1-.14,2,4.34,4.34,0,0,1-1.43,2.49A3.52,3.52,0,0,1,329.28,206.62Z" fill="#4c5054"/><path d="M323.73,195.19l-1.76-.47.4-1.53,1.76.47Zm10.7,2.82-9-2.38.41-1.53,9,2.38Z" fill="#4c5054"/><path d="M336.12,194.62l.61-1.42a1.49,1.49,0,0,0,1.14-.26,2.64,2.64,0,0,0,.84-1.44,2.88,2.88,0,0,0,0-1.75,2.19,2.19,0,0,0-1-1.1,10.25,10.25,0,0,0-1.93-.63,3.27,3.27,0,0,1,.52,2.81,3.54,3.54,0,0,1-2.1,2.53,5.38,5.38,0,0,1-3.49.17,6.25,6.25,0,0,1-2.26-1.09,3.9,3.9,0,0,1-1.33-1.8,3.82,3.82,0,0,1-.05-2.25,3.35,3.35,0,0,1,2-2.29l-1.09-.29.37-1.41,7.81,2.06a7.68,7.68,0,0,1,2.87,1.21,3.28,3.28,0,0,1,1,1.73,4.8,4.8,0,0,1-.09,2.42,4.48,4.48,0,0,1-1.42,2.42A2.52,2.52,0,0,1,336.12,194.62ZM331,191.93a4.11,4.11,0,0,0,2.78,0,2.31,2.31,0,0,0,1.28-1.56,2.34,2.34,0,0,0-.34-2,3.89,3.89,0,0,0-2.36-1.38,3.84,3.84,0,0,0-2.69.07,2.36,2.36,0,0,0-1.31,1.56,2.26,2.26,0,0,0,.37,1.95A3.82,3.82,0,0,0,331,191.93Z" fill="#4c5054"/><path d="M338,184.47l-9-2.38.36-1.38,1.29.34a3.34,3.34,0,0,1-.73-3.26,3.81,3.81,0,0,1,.69-1.43,2.4,2.4,0,0,1,1-.82,3.13,3.13,0,0,1,1.25-.18,9,9,0,0,1,1.51.31l5.55,1.46-.4,1.53L334,177.22a4.1,4.1,0,0,0-1.45-.19,1.47,1.47,0,0,0-.9.43,2.09,2.09,0,0,0-.56,1,2.56,2.56,0,0,0,.17,1.85,3.22,3.22,0,0,0,2.17,1.33l4.93,1.3Z" fill="#4c5054"/><path d="M429.81,281.91l-12.46-3.28,1.13-4.29a10.8,10.8,0,0,1,.76-2.18,4.29,4.29,0,0,1,1.38-1.59,5.21,5.21,0,0,1,2.51-.91,8.65,8.65,0,0,1,3.09.29,9.06,9.06,0,0,1,2.43,1,6.39,6.39,0,0,1,1.59,1.33,4.5,4.5,0,0,1,.83,1.43,4.79,4.79,0,0,1,.24,1.66,8.56,8.56,0,0,1-.32,2.05Zm-1-2,.7-2.66a6.52,6.52,0,0,0,.28-2,2.79,2.79,0,0,0-.35-1.29,4.14,4.14,0,0,0-1.34-1.33,8,8,0,0,0-2.31-1,6.05,6.05,0,0,0-3.17-.15,3.35,3.35,0,0,0-1.82,1.19,6.67,6.67,0,0,0-.82,2.07l-.69,2.62Z" fill="#4c5054"/><path d="M431.79,262.59l.61-1.53a4.07,4.07,0,0,1,1.79,2,4.86,4.86,0,0,1-2,5.6,4.93,4.93,0,0,1-3.72.26,5.13,5.13,0,0,1-3.23-2.11,4.14,4.14,0,0,1-.46-3.37,4,4,0,0,1,2-2.63,5.07,5.07,0,0,1,3.77-.24l.4.12-1.77,6.73a3.65,3.65,0,0,0,2.5-.24,2.57,2.57,0,0,0,1.28-1.68,2.4,2.4,0,0,0-.06-1.55A3,3,0,0,0,431.79,262.59ZM428,267l1.33-5a3.15,3.15,0,0,0-1.86.13,2.41,2.41,0,0,0-1.38,1.66,2.47,2.47,0,0,0,.24,2A2.88,2.88,0,0,0,428,267Z" fill="#4c5054"/><path d="M436.28,257.35l-9.93,1,.42-1.61,5.92-.51c.64-.06,1.3-.09,2-.1-.44-.26-1-.6-1.57-1l-5-3.46.41-1.57,8.13,5.79Z" fill="#4c5054"/><path d="M436.63,244.21l.62-1.53a4,4,0,0,1,1.78,1.95,4.38,4.38,0,0,1,.09,2.79,4.23,4.23,0,0,1-2.05,2.81,4.92,4.92,0,0,1-3.73.26,5.14,5.14,0,0,1-3.22-2.1,4.07,4.07,0,0,1-.46-3.37,4,4,0,0,1,2-2.64,5.07,5.07,0,0,1,3.77-.23l.41.12L434.07,249a3.64,3.64,0,0,0,2.5-.24,2.62,2.62,0,0,0,1.29-1.68,2.43,2.43,0,0,0-.06-1.56A3,3,0,0,0,436.63,244.21Zm-3.79,4.37,1.33-5a3.19,3.19,0,0,0-1.87.13,2.44,2.44,0,0,0-1.38,1.66,2.56,2.56,0,0,0,.24,2A2.88,2.88,0,0,0,432.84,248.58Z" fill="#4c5054"/><path d="M440.45,241.51,428,238.22l.4-1.53L440.86,240Z" fill="#4c5054"/><path d="M436.82,237a4.8,4.8,0,0,1-3.35-2.38,4.32,4.32,0,0,1-.25-3.1,4.19,4.19,0,0,1,2-2.72,4.8,4.8,0,0,1,3.68-.29,6.12,6.12,0,0,1,2.6,1.24,3.8,3.8,0,0,1,1.15,1.93,4.49,4.49,0,0,1,0,2.33,4.19,4.19,0,0,1-2,2.74A5,5,0,0,1,436.82,237Zm.41-1.58a4,4,0,0,0,2.8-.07,2.49,2.49,0,0,0,1.36-1.67,2.52,2.52,0,0,0-.36-2.13,4.1,4.1,0,0,0-2.45-1.45,3.83,3.83,0,0,0-2.73.09,2.6,2.6,0,0,0-1,3.8A4,4,0,0,0,437.23,235.41Z" fill="#4c5054"/><path d="M447.49,228.84,435,225.55l.37-1.4,1.17.31a3.59,3.59,0,0,1-.74-1.38,3.25,3.25,0,0,1,.05-1.6A3.65,3.65,0,0,1,437,219.6a3.77,3.77,0,0,1,2-.89,6.48,6.48,0,0,1,2.5.17,6.29,6.29,0,0,1,2.36,1.16,3.92,3.92,0,0,1,1.39,4,3.1,3.1,0,0,1-1.77,2.07l4.4,1.16Zm-7.55-3.48a4.06,4.06,0,0,0,2.76,0,2.26,2.26,0,0,0,.88-3.46,4.25,4.25,0,0,0-2.48-1.44,4.15,4.15,0,0,0-2.77,0,2.23,2.23,0,0,0-1.31,1.47,2.27,2.27,0,0,0,.46,2A4.23,4.23,0,0,0,439.94,225.36Z" fill="#4c5054"/><path d="M446.59,218.25l-9-2.38.36-1.37,1.27.33a3.25,3.25,0,0,1-.77-1.41,3.21,3.21,0,0,1,0-1.71,3.06,3.06,0,0,1,.85-1.54,2.28,2.28,0,0,1,1.4-.59,3.36,3.36,0,0,1-.85-3.21,2.88,2.88,0,0,1,1.29-1.87,3.3,3.3,0,0,1,2.48-.12l6.2,1.64-.4,1.52-5.69-1.5a4.29,4.29,0,0,0-1.36-.2,1.32,1.32,0,0,0-.79.37,1.76,1.76,0,0,0-.49.85,2.17,2.17,0,0,0,.22,1.75,2.86,2.86,0,0,0,1.86,1.16l5.24,1.38-.4,1.53-5.87-1.54a2.63,2.63,0,0,0-1.62,0,1.46,1.46,0,0,0-.84,1.09,2.32,2.32,0,0,0,0,1.28,2,2,0,0,0,.78,1.06,5.67,5.67,0,0,0,1.83.74l4.68,1.24Z" fill="#4c5054"/><path d="M449.13,196.8l.61-1.53a4,4,0,0,1,1.78,2,4.21,4.21,0,0,1,.09,2.78,4.27,4.27,0,0,1-2.05,2.82,4.94,4.94,0,0,1-3.72.26,5.13,5.13,0,0,1-3.23-2.11,4.1,4.1,0,0,1-.46-3.37,4,4,0,0,1,2-2.63,5.07,5.07,0,0,1,3.77-.24l.41.12-1.77,6.73a3.65,3.65,0,0,0,2.5-.24,2.57,2.57,0,0,0,1.28-1.68,2.4,2.4,0,0,0-.06-1.55A3,3,0,0,0,449.13,196.8Zm-3.8,4.37,1.33-5a3.15,3.15,0,0,0-1.86.13,2.41,2.41,0,0,0-1.38,1.66,2.51,2.51,0,0,0,.23,2A2.94,2.94,0,0,0,445.33,201.17Z" fill="#4c5054"/><path d="M453,194.07l-9-2.38.36-1.38,1.29.34a3.35,3.35,0,0,1-.73-3.27,3.84,3.84,0,0,1,.69-1.42,2.4,2.4,0,0,1,1-.82,3.13,3.13,0,0,1,1.25-.18,9,9,0,0,1,1.51.31l5.55,1.46-.4,1.53L449,186.82a4.42,4.42,0,0,0-1.45-.2,1.54,1.54,0,0,0-.9.44,2.09,2.09,0,0,0-.56,1,2.56,2.56,0,0,0,.17,1.85,3.22,3.22,0,0,0,2.17,1.33l4.93,1.3Z" fill="#4c5054"/><path d="M455,180.69l1.41.13a5.57,5.57,0,0,1-.17,1.19,2.62,2.62,0,0,1-.6,1.22,1.57,1.57,0,0,1-.86.47,5.73,5.73,0,0,1-1.86-.29L447.75,182l-.3,1.12-1.19-.31.3-1.12-2.24-.59-.52-1.77,3.16.84.4-1.54,1.19.31-.4,1.54,5.27,1.39a3,3,0,0,0,.87.14.62.62,0,0,0,.36-.18,1,1,0,0,0,.25-.5A4,4,0,0,0,455,180.69Z" fill="#4c5054"/><path d="M555.61,286.33l-11-2.9-1.08,4.1-1.47-.38,2.6-9.88,1.47.39-1.09,4.12,11,2.9Z" fill="#4c5054"/><path d="M555.74,274l.61-1.53a4,4,0,0,1,1.78,2,4.21,4.21,0,0,1,.09,2.78,4.27,4.27,0,0,1-2.05,2.82,4.89,4.89,0,0,1-3.72.26,5.13,5.13,0,0,1-3.23-2.11,4.1,4.1,0,0,1-.46-3.37,4,4,0,0,1,2-2.63,5.07,5.07,0,0,1,3.77-.24l.41.12-1.77,6.73a3.5,3.5,0,0,0,2.49-.24,2.56,2.56,0,0,0,1.29-1.68,2.4,2.4,0,0,0-.06-1.55A3.08,3.08,0,0,0,555.74,274Zm-3.8,4.37,1.33-5a3.15,3.15,0,0,0-1.86.13,2.4,2.4,0,0,0-1.38,1.67,2.49,2.49,0,0,0,.23,1.95A2.86,2.86,0,0,0,551.94,278.41Z" fill="#4c5054"/><path d="M556.71,271.21l.16-1.58a2.12,2.12,0,0,0,1.58-.34,2.55,2.55,0,0,0,.92-1.5,2.46,2.46,0,0,0,0-1.67,1.33,1.33,0,0,0-.87-.78,1,1,0,0,0-.94.24,6.65,6.65,0,0,0-.93,1.42,14.86,14.86,0,0,1-1.35,2.14,2.32,2.32,0,0,1-1.12.76,2.39,2.39,0,0,1-1.3,0,2.46,2.46,0,0,1-1-.57,2.74,2.74,0,0,1-.66-1,3.5,3.5,0,0,1-.19-1.09,5.09,5.09,0,0,1,.17-1.37,5.46,5.46,0,0,1,.8-1.79,2.54,2.54,0,0,1,1.14-1,3.2,3.2,0,0,1,1.53-.16l-.19,1.55a1.7,1.7,0,0,0-1.24.3,2.18,2.18,0,0,0-.75,1.28,2.59,2.59,0,0,0,0,1.6,1,1,0,0,0,.7.66.89.89,0,0,0,.58,0,1.36,1.36,0,0,0,.56-.48c.1-.14.35-.56.75-1.25a18,18,0,0,1,1.31-2.08,2.32,2.32,0,0,1,1.06-.79,2.25,2.25,0,0,1,1.41,0,2.57,2.57,0,0,1,1.32.82,3,3,0,0,1,.71,1.56,4.92,4.92,0,0,1-.13,2,4.35,4.35,0,0,1-1.44,2.49A3.52,3.52,0,0,1,556.71,271.21Z" fill="#4c5054"/><path d="M561.37,258.9l1.41.14a5.67,5.67,0,0,1-.17,1.19,2.58,2.58,0,0,1-.6,1.22,1.54,1.54,0,0,1-.86.47,5.73,5.73,0,0,1-1.86-.29l-5.19-1.37-.3,1.12-1.19-.31.3-1.12-2.24-.59-.51-1.77,3.15.83.41-1.53,1.19.31-.41,1.54,5.28,1.39a2.9,2.9,0,0,0,.86.14.63.63,0,0,0,.37-.19,1.06,1.06,0,0,0,.25-.49A5.57,5.57,0,0,0,561.37,258.9Z" fill="#4c5054"/><path d="M552.44,254.94l-1.76-.46.4-1.53,1.76.46Zm10.7,2.82-9-2.38.4-1.53,9,2.38Z" fill="#4c5054"/><path d="M564.15,253.9l-9-2.38.36-1.37,1.28.34a3.39,3.39,0,0,1-.73-3.27,4.09,4.09,0,0,1,.69-1.42,2.38,2.38,0,0,1,1-.82,2.88,2.88,0,0,1,1.26-.18,9,9,0,0,1,1.51.31l5.55,1.46-.41,1.53-5.49-1.45a4.28,4.28,0,0,0-1.44-.19,1.59,1.59,0,0,0-.91.44,2,2,0,0,0-.55,1,2.51,2.51,0,0,0,.17,1.85,3.12,3.12,0,0,0,2.17,1.33l4.93,1.3Z" fill="#4c5054"/><path d="M567.38,244.7l.61-1.43a1.48,1.48,0,0,0,1.14-.25,2.73,2.73,0,0,0,.84-1.45,2.8,2.8,0,0,0,0-1.75,2.15,2.15,0,0,0-1-1.09,9.13,9.13,0,0,0-1.93-.63,3.26,3.26,0,0,1,.52,2.81,3.55,3.55,0,0,1-2.1,2.53,5.38,5.38,0,0,1-3.49.17,6.27,6.27,0,0,1-2.26-1.1,3.7,3.7,0,0,1-1.38-4,3.35,3.35,0,0,1,2-2.3l-1.09-.28.37-1.41,7.8,2.05a7.64,7.64,0,0,1,2.88,1.22,3.25,3.25,0,0,1,1,1.72,4.85,4.85,0,0,1-.1,2.43,4.48,4.48,0,0,1-1.41,2.42A2.55,2.55,0,0,1,567.38,244.7Zm-5.09-2.7a4,4,0,0,0,2.78,0,2.29,2.29,0,0,0,1.28-1.55,2.34,2.34,0,0,0-.34-2,4,4,0,0,0-2.36-1.39,3.83,3.83,0,0,0-2.69.08,2.32,2.32,0,0,0-1.31,1.55,2.26,2.26,0,0,0,.37,1.95A3.78,3.78,0,0,0,562.29,242Z" fill="#4c5054"/><path d="M662.65,287.31l2,.34a4.37,4.37,0,0,0,.13,2,3.56,3.56,0,0,0,1.22,1.58,5.89,5.89,0,0,0,2.22,1.07,5.72,5.72,0,0,0,2.13.19,3,3,0,0,0,1.56-.59,2.23,2.23,0,0,0,.77-1.19,2,2,0,0,0-.08-1.36,3.28,3.28,0,0,0-1.14-1.26,28.3,28.3,0,0,0-2.51-1.46,14.37,14.37,0,0,1-2.69-1.72A4.26,4.26,0,0,1,665,283.1a3.72,3.72,0,0,1,0-2,4.06,4.06,0,0,1,1.22-2,4.3,4.3,0,0,1,2.31-1,7.66,7.66,0,0,1,2.94.22,8,8,0,0,1,2.84,1.33,4.36,4.36,0,0,1,1.56,2.13,4.77,4.77,0,0,1,.12,2.6l-2-.36a3.22,3.22,0,0,0-.48-2.46,4.26,4.26,0,0,0-2.46-1.44,4.41,4.41,0,0,0-2.84,0,2,2,0,0,0-1.26,1.39,1.78,1.78,0,0,0,.23,1.51,8.5,8.5,0,0,0,2.76,1.88,22.32,22.32,0,0,1,3.11,1.86,4.78,4.78,0,0,1,1.55,2.07,4,4,0,0,1,.07,2.34,4.31,4.31,0,0,1-1.3,2.1,4.71,4.71,0,0,1-2.44,1.15,7.12,7.12,0,0,1-3.09-.18,9.17,9.17,0,0,1-3.31-1.51,5,5,0,0,1-1.71-2.39A5.3,5.3,0,0,1,662.65,287.31Z" fill="#fff"/><path d="M684.49,294.5l1.86.75a4.9,4.9,0,0,1-2.38,2.18,5.28,5.28,0,0,1-3.4.1,5.19,5.19,0,0,1-3.45-2.5,6.06,6.06,0,0,1-.32-4.56,6.3,6.3,0,0,1,2.58-3.94,5,5,0,0,1,4.12-.56,4.9,4.9,0,0,1,3.22,2.46A6.2,6.2,0,0,1,687,293c0,.11-.07.27-.14.49l-8.23-2.16a4.35,4.35,0,0,0,.3,3.05A3.19,3.19,0,0,0,681,296a3,3,0,0,0,1.9-.08A3.77,3.77,0,0,0,684.49,294.5Zm-5.35-4.64,6.16,1.62a3.83,3.83,0,0,0-.15-2.27,3,3,0,0,0-2-1.69,3.08,3.08,0,0,0-2.4.29A3.56,3.56,0,0,0,679.14,289.86Z" fill="#fff"/><path d="M696.09,297l1.78.73a5,5,0,0,1-2.33,2.57,4.63,4.63,0,0,1-3.33.27,4.9,4.9,0,0,1-3.25-2.44,6.23,6.23,0,0,1-.26-4.61,7.9,7.9,0,0,1,1.42-3,4.21,4.21,0,0,1,2.33-1.53,5.47,5.47,0,0,1,2.81,0,4.73,4.73,0,0,1,2.7,1.69,4.29,4.29,0,0,1,.78,3l-1.89-.2a3.14,3.14,0,0,0-.48-1.91,2.43,2.43,0,0,0-1.44-1,3,3,0,0,0-2.57.4,5,5,0,0,0-1.72,3,5.13,5.13,0,0,0,0,3.45,2.9,2.9,0,0,0,2,1.6,2.73,2.73,0,0,0,2-.19A3.49,3.49,0,0,0,696.09,297Z" fill="#fff"/><path d="M705.7,303.89l.42-1.62a4.16,4.16,0,0,1-4,.94,4.48,4.48,0,0,1-1.72-.85,3.07,3.07,0,0,1-1-1.27,3.62,3.62,0,0,1-.22-1.54,10.9,10.9,0,0,1,.35-1.78l1.8-6.83,1.87.49-1.61,6.12a11.86,11.86,0,0,0-.41,2,2,2,0,0,0,.45,1.36,2.38,2.38,0,0,0,1.3.79,3.23,3.23,0,0,0,1.69,0,2.46,2.46,0,0,0,1.35-.9,6.05,6.05,0,0,0,.88-2.08l1.56-5.91,1.87.5-2.91,11Z" fill="#fff"/><path d="M710.28,305.09l2.9-11,1.69.45-.44,1.67a4.76,4.76,0,0,1,1.59-1.24,2.14,2.14,0,0,1,1.3-.05,3.77,3.77,0,0,1,1.77,1.1L718,297.56a2.72,2.72,0,0,0-1.26-.77,1.9,1.9,0,0,0-1.2.08,2.11,2.11,0,0,0-1,.84,7.67,7.67,0,0,0-.88,2.1l-1.52,5.78Z" fill="#fff"/><path d="M717.39,307l2.91-11,1.87.49-2.91,11Zm3.45-13.08.57-2.15,1.86.49-.56,2.15Z" fill="#fff"/><path d="M726.63,307.61l-.16,1.73a7.2,7.2,0,0,1-1.46-.21,3.28,3.28,0,0,1-1.5-.74,1.87,1.87,0,0,1-.56-1.05,7.06,7.06,0,0,1,.35-2.27l1.67-6.34-1.37-.37.39-1.45,1.37.36.72-2.73,2.15-.63-1,3.85,1.88.5-.39,1.45-1.88-.49-1.7,6.45a3.51,3.51,0,0,0-.17,1.05.81.81,0,0,0,.23.45,1.2,1.2,0,0,0,.6.3A5.58,5.58,0,0,0,726.63,307.61Z" fill="#fff"/><path d="M726.82,314l.25-1.81a4.53,4.53,0,0,0,1,.44,2.15,2.15,0,0,0,1,.06,1.77,1.77,0,0,0,.77-.42,11.17,11.17,0,0,0,.93-1.24l.29-.42-1.27-12.15,2,.53.61,7a27.52,27.52,0,0,1,.13,2.77,27,27,0,0,1,1.43-2.31l4.05-5.81,1.87.49-7.15,10.11a21.92,21.92,0,0,1-1.71,2.23,3.82,3.82,0,0,1-1.5,1.06,2.8,2.8,0,0,1-1.65,0A3.66,3.66,0,0,1,726.82,314Z" fill="#fff"/><path d="M648.88,200.62V184.41h5.26a19.24,19.24,0,0,1,3.89.24,4.34,4.34,0,0,1,2.34,1.59,5.09,5.09,0,0,1,.93,3.16,5.32,5.32,0,0,1-.54,2.51,4.5,4.5,0,0,1-1.37,1.6,4.83,4.83,0,0,1-1.7.76,18.08,18.08,0,0,1-3.4.24h-2.13v6.11Zm3.28-13.47v4.6H654a8.53,8.53,0,0,0,2.59-.25,2.2,2.2,0,0,0,1-.8,2.15,2.15,0,0,0,.37-1.26,2.09,2.09,0,0,0-.52-1.46,2.27,2.27,0,0,0-1.31-.72,16.37,16.37,0,0,0-2.36-.11Z" fill="#f63"/><path d="M664,200.62V184.41h6.89a11.78,11.78,0,0,1,3.78.44,3.76,3.76,0,0,1,1.89,1.55,4.71,4.71,0,0,1,.7,2.56,4.3,4.3,0,0,1-1.07,3,5.16,5.16,0,0,1-3.21,1.5,7.38,7.38,0,0,1,1.76,1.36,18.23,18.23,0,0,1,1.86,2.63l2,3.16h-3.91l-2.37-3.52a22.07,22.07,0,0,0-1.73-2.39,2.43,2.43,0,0,0-1-.67,5.51,5.51,0,0,0-1.65-.18h-.66v6.76Zm3.28-9.35h2.42a12.62,12.62,0,0,0,2.94-.2,1.73,1.73,0,0,0,.92-.69,2.1,2.1,0,0,0,.33-1.21,1.93,1.93,0,0,0-.44-1.33,2,2,0,0,0-1.23-.63c-.26,0-1.06-.06-2.39-.06h-2.55Z" fill="#f63"/><path d="M679.69,192.62a10.22,10.22,0,0,1,.74-4.16,7.64,7.64,0,0,1,1.51-2.23,6.45,6.45,0,0,1,2.09-1.46,9.07,9.07,0,0,1,3.5-.64,7.57,7.57,0,0,1,5.73,2.23,9.94,9.94,0,0,1,0,12.32,7.55,7.55,0,0,1-5.71,2.22,7.63,7.63,0,0,1-5.75-2.21A8.37,8.37,0,0,1,679.69,192.62Zm3.37-.11a6.07,6.07,0,0,0,1.27,4.17,4.15,4.15,0,0,0,3.23,1.42,4.09,4.09,0,0,0,3.21-1.41,7.72,7.72,0,0,0,0-8.39,4.53,4.53,0,0,0-6.51,0A6.12,6.12,0,0,0,683.06,192.51Z" fill="#f63"/><path d="M698,184.41h6.48a18.36,18.36,0,0,1,2.87.16,4.13,4.13,0,0,1,2.94,2,3.71,3.71,0,0,1,.49,1.9,3.85,3.85,0,0,1-2.27,3.52,4.3,4.3,0,0,1,2.27,1.47,3.85,3.85,0,0,1,.8,2.44,4.82,4.82,0,0,1-.51,2.15,4.28,4.28,0,0,1-1.41,1.67,4.51,4.51,0,0,1-2.19.77c-.55.06-1.87.1-4,.11H698Zm3.27,2.7v3.75h2.15c1.27,0,2.07,0,2.38-.06a2.13,2.13,0,0,0,1.32-.58,1.7,1.7,0,0,0,.48-1.26,1.78,1.78,0,0,0-.42-1.23,1.88,1.88,0,0,0-1.23-.57c-.32,0-1.26,0-2.8,0Zm0,6.45v4.33h3a14.39,14.39,0,0,0,2.25-.1,2.08,2.08,0,0,0,1.19-.64,2.05,2.05,0,0,0,.46-1.38,2.09,2.09,0,0,0-.36-1.24,1.92,1.92,0,0,0-1-.74,10.91,10.91,0,0,0-2.9-.23Z" fill="#f63"/><path d="M714.41,200.62V184.54h3.28v13.35h8.14v2.73Z" fill="#f63"/><path d="M728.16,200.62V184.41h12v2.74h-8.74v3.6h8.14v2.73h-8.14v4.41h9v2.73Z" fill="#f63"/><path d="M743.22,200.62V184.41h4.9l3,11.06,2.9-11.06h4.91v16.21h-3V187.86l-3.21,12.76h-3.16l-3.2-12.76v12.76Z" fill="#f63"/><path d="M763.33,196.44l-.81-8.23v-3.8h3.37v3.8l-.8,8.23Zm-.67,4.18v-3.1h3.1v3.1Z" fill="#f63"/><path d="M630.14,392V376.26h5.43a13.09,13.09,0,0,1,2.8.23,5.33,5.33,0,0,1,2.31,1.13,6.44,6.44,0,0,1,1.87,2.69,10.59,10.59,0,0,1,.61,3.74,10.94,10.94,0,0,1-.42,3.18,7.38,7.38,0,0,1-1.07,2.29,5.54,5.54,0,0,1-1.43,1.43,5.85,5.85,0,0,1-1.88.79,10.73,10.73,0,0,1-2.53.27Zm2.09-1.86h3.36a7.91,7.91,0,0,0,2.44-.29,3.49,3.49,0,0,0,1.42-.81,5,5,0,0,0,1.15-2,9.57,9.57,0,0,0,.41-3,7.35,7.35,0,0,0-.81-3.8,4.07,4.07,0,0,0-2-1.78,8.25,8.25,0,0,0-2.69-.32h-3.31Z" fill="#333332"/><path d="M653.59,388.34l2,.24a4.84,4.84,0,0,1-1.75,2.72,5.92,5.92,0,0,1-7.23-.57,6,6,0,0,1-1.47-4.33,6.3,6.3,0,0,1,1.48-4.47,5,5,0,0,1,3.85-1.59,4.89,4.89,0,0,1,3.74,1.56,6.22,6.22,0,0,1,1.45,4.38c0,.12,0,.29,0,.52h-8.51a4.38,4.38,0,0,0,1.06,2.88,3.16,3.16,0,0,0,2.39,1,3,3,0,0,0,1.81-.56A3.7,3.7,0,0,0,653.59,388.34Zm-6.34-3.13h6.37a3.83,3.83,0,0,0-.74-2.16,3,3,0,0,0-2.39-1.12,3,3,0,0,0-2.24.9A3.47,3.47,0,0,0,647.25,385.21Z" fill="#333332"/><path d="M658,396.38V380.6h1.76v1.48a4.41,4.41,0,0,1,1.41-1.3,3.84,3.84,0,0,1,1.9-.44,4.55,4.55,0,0,1,2.58.76,4.64,4.64,0,0,1,1.68,2.12,8.25,8.25,0,0,1-.05,6.15,4.73,4.73,0,0,1-1.83,2.15,4.68,4.68,0,0,1-2.52.75,3.65,3.65,0,0,1-1.73-.41,3.94,3.94,0,0,1-1.27-1v5.55Zm1.75-10a5,5,0,0,0,.89,3.26,2.75,2.75,0,0,0,2.16,1.05,2.82,2.82,0,0,0,2.21-1.09,5.21,5.21,0,0,0,.92-3.38,5.06,5.06,0,0,0-.9-3.27,2.7,2.7,0,0,0-2.14-1.08,2.77,2.77,0,0,0-2.19,1.15A5.19,5.19,0,0,0,659.77,386.37Z" fill="#333332"/><path d="M670.21,392V376.26h1.94V392Z" fill="#333332"/><path d="M674.42,386.31a5.9,5.9,0,0,1,1.76-4.7,5.36,5.36,0,0,1,3.59-1.27,5.13,5.13,0,0,1,3.85,1.55,5.86,5.86,0,0,1,1.49,4.26,7.55,7.55,0,0,1-.66,3.46,4.71,4.71,0,0,1-1.92,2,5.55,5.55,0,0,1-2.76.7,5.11,5.11,0,0,1-3.87-1.54A6.15,6.15,0,0,1,674.42,386.31Zm2,0a4.85,4.85,0,0,0,1,3.28,3.18,3.18,0,0,0,4.8,0,5,5,0,0,0,1-3.34,4.69,4.69,0,0,0-1-3.2,3.17,3.17,0,0,0-4.79,0A4.83,4.83,0,0,0,676.41,386.31Z" fill="#333332"/><path d="M687.29,396.4l-.21-1.81a4.48,4.48,0,0,0,1.1.17,2.21,2.21,0,0,0,1-.21,1.93,1.93,0,0,0,.63-.61,9.16,9.16,0,0,0,.59-1.44c0-.1.09-.26.17-.47l-4.33-11.43h2.09l2.37,6.61c.31.84.58,1.72.83,2.64a25.2,25.2,0,0,1,.79-2.6l2.44-6.65h1.93l-4.34,11.6a21,21,0,0,1-1.08,2.59,3.73,3.73,0,0,1-1.18,1.4,2.8,2.8,0,0,1-1.59.45A3.86,3.86,0,0,1,687.29,396.4Z" fill="#333332"/><path d="M698.38,392V380.6h1.73v1.6a4,4,0,0,1,3.46-1.86,3.74,3.74,0,0,1,2.07.53,2.77,2.77,0,0,1,1.15,1.47,4.1,4.1,0,0,1,3.52-2,3.5,3.5,0,0,1,2.61.94,4,4,0,0,1,.92,2.9V392h-1.93v-7.19a5.15,5.15,0,0,0-.19-1.67,1.59,1.59,0,0,0-.68-.82,2.1,2.1,0,0,0-1.16-.31,2.74,2.74,0,0,0-2,.8,3.52,3.52,0,0,0-.79,2.56V392h-1.93V384.6a3.24,3.24,0,0,0-.48-1.94,1.77,1.77,0,0,0-1.54-.64,2.76,2.76,0,0,0-1.51.43,2.46,2.46,0,0,0-1,1.26,7.24,7.24,0,0,0-.31,2.38V392Z" fill="#333332"/><path d="M724.51,388.34l2,.24a4.84,4.84,0,0,1-1.75,2.72,5.92,5.92,0,0,1-7.23-.57,6,6,0,0,1-1.47-4.33,6.3,6.3,0,0,1,1.48-4.47,5,5,0,0,1,3.85-1.59,4.89,4.89,0,0,1,3.74,1.56,6.22,6.22,0,0,1,1.45,4.38c0,.12,0,.29,0,.52h-8.51a4.38,4.38,0,0,0,1.06,2.88,3.16,3.16,0,0,0,2.39,1,3,3,0,0,0,1.81-.56A3.7,3.7,0,0,0,724.51,388.34Zm-6.34-3.13h6.37a3.83,3.83,0,0,0-.74-2.16,3,3,0,0,0-2.39-1.12,3,3,0,0,0-2.24.9A3.47,3.47,0,0,0,718.17,385.21Z" fill="#333332"/><path d="M728.94,392V380.6h1.74v1.62a4.11,4.11,0,0,1,3.63-1.88,4.74,4.74,0,0,1,1.9.38,2.92,2.92,0,0,1,1.29,1,3.56,3.56,0,0,1,.6,1.43,11.06,11.06,0,0,1,.11,1.88v7h-1.93v-6.94a5.21,5.21,0,0,0-.23-1.77,1.85,1.85,0,0,0-.8-.93,2.56,2.56,0,0,0-1.35-.35,3.15,3.15,0,0,0-2.13.78,3.88,3.88,0,0,0-.9,3V392Z" fill="#333332"/><path d="M745.4,390.28l.28,1.71a7.62,7.62,0,0,1-1.46.17,3.35,3.35,0,0,1-1.64-.33,1.85,1.85,0,0,1-.81-.88,6.8,6.8,0,0,1-.24-2.28v-6.56h-1.42V380.6h1.42v-2.82l1.92-1.16v4h1.95v1.51h-1.95v6.67a3.66,3.66,0,0,0,.1,1.06.83.83,0,0,0,.34.38,1.3,1.3,0,0,0,.66.14A6.53,6.53,0,0,0,745.4,390.28Z" fill="#333332"/><path d="M768.85,343.29a3.35,3.35,0,0,1-4.1,2.39l-15.18-4c-.85-.22-1.5-.56-1.72.29h0a1.58,1.58,0,0,1-1.94,1.13l-7-1.83a1.59,1.59,0,0,1-1.13-1.94h0c.23-.85-.5-.88-1.35-1.1L618.38,307.11a17.14,17.14,0,0,0-18.74,7.72l-6.71,10.51c-13.78,21.59-38.9,31.94-62.47,25.72L130.23,245.59,178.64,61.91,578.87,167.38c23.57,6.21,40.33,27.6,41.67,53.17l1.54,9.1c.41,7.68,5.19,14,12.51,16-.2.12,118.09,31.12,118.09,31.12s1.5.56,1.72-.29h0a1.58,1.58,0,0,1,1.94-1.13l6.95,1.83a1.59,1.59,0,0,1,1.13,1.94h0c-.22.85.51.88,1.35,1.1l15.19,4a3.36,3.36,0,0,1,2.39,4.1Z" fill="none" stroke="#4c5054" stroke-miterlimit="10" stroke-width="2"/></g></svg>