<?xml version="1.0" encoding="UTF-8"?><svg xmlns="http://www.w3.org/2000/svg" xmlns:xlink="http://www.w3.org/1999/xlink" contentScriptType="text/ecmascript" width="1440pt" zoomAndPan="magnify" contentStyleType="text/css" viewBox="0 0 1440 809.999993" height="809.999993pt" preserveAspectRatio="xMidYMid meet" version="1.2"><defs><g/><clipPath xml:id="clip1" id="clip1"><path d="M 81 239.464844 L 344.085938 239.464844 L 344.085938 551.265625 L 81 551.265625 Z M 81 239.464844 "/></clipPath><clipPath xml:id="clip2" id="clip2"><path d="M 525.054688 239.464844 L 709 239.464844 L 709 424 L 525.054688 424 Z M 525.054688 239.464844 "/></clipPath><clipPath xml:id="clip3" id="clip3"><path d="M 682 304 L 804.746094 304 L 804.746094 425 L 682 425 Z M 682 304 "/></clipPath><clipPath xml:id="clip4" id="clip4"><path d="M 582 397 L 739 397 L 739 551.265625 L 582 551.265625 Z M 582 397 "/></clipPath><clipPath xml:id="clip5" id="clip5"><path d="M 697 239.464844 L 760 239.464844 L 760 304 L 697 304 Z M 697 239.464844 "/></clipPath><clipPath xml:id="clip6" id="clip6"><path d="M 1008.074219 250 L 1287 250 L 1287 528 L 1008.074219 528 Z M 1008.074219 250 "/></clipPath><clipPath xml:id="clip7" id="clip7"><path d="M 1008.074219 240.078125 L 1312.574219 240.078125 L 1312.574219 550.597656 L 1008.074219 550.597656 Z M 1008.074219 240.078125 "/></clipPath></defs><g xml:id="surface1" id="surface1"><rect x="0" width="1440" y="0" height="809.999993" style="fill:rgb(100%,100%,100%);fill-opacity:1;stroke:none;"/><rect x="0" width="1440" y="0" height="809.999993" style="fill:rgb(100%,100%,100%);fill-opacity:1;stroke:none;"/><rect x="0" width="1440" y="0" height="809.999993" style="fill:rgb(100%,100%,100%);fill-opacity:1;stroke:none;"/><g clip-rule="nonzero" clip-path="url(#clip1)"><path style=" stroke:none;fill-rule:nonzero;fill:rgb(0%,0%,0%);fill-opacity:1;" d="M 334.34375 504.980469 L 302.675781 504.980469 L 302.675781 265.042969 C 302.675781 250.914062 291.226562 239.464844 277.097656 239.464844 L 106.578125 239.464844 C 92.449219 239.464844 81 250.914062 81 265.042969 L 81 285.75 C 81 291.109375 85.386719 295.492188 90.742188 295.492188 L 122.410156 295.492188 L 122.410156 525.6875 C 122.410156 539.8125 133.859375 551.261719 147.988281 551.261719 L 318.507812 551.261719 C 332.636719 551.261719 344.085938 539.8125 344.085938 525.6875 L 344.085938 514.722656 C 344.085938 509.363281 339.703125 504.980469 334.34375 504.980469 Z M 122.410156 285.75 L 90.742188 285.75 L 90.742188 265.042969 C 90.742188 256.273438 97.808594 249.210938 106.578125 249.210938 C 115.347656 249.210938 122.410156 256.273438 122.410156 265.042969 Z M 273.441406 307.671875 L 278.316406 307.671875 C 280.992188 307.671875 283.1875 309.863281 283.1875 312.542969 C 283.1875 315.222656 280.992188 317.414062 278.316406 317.414062 L 273.441406 317.414062 C 270.761719 317.414062 268.570312 315.222656 268.570312 312.542969 C 268.570312 309.863281 270.761719 307.671875 273.441406 307.671875 Z M 273.441406 332.03125 L 278.316406 332.03125 C 280.992188 332.03125 283.1875 334.222656 283.1875 336.902344 C 283.1875 339.582031 280.992188 341.773438 278.316406 341.773438 L 273.441406 341.773438 C 270.761719 341.773438 268.570312 339.582031 268.570312 336.902344 C 268.570312 334.222656 270.761719 332.03125 273.441406 332.03125 Z M 273.441406 356.390625 L 278.316406 356.390625 C 280.992188 356.390625 283.1875 358.582031 283.1875 361.261719 C 283.1875 363.941406 280.992188 366.132812 278.316406 366.132812 L 273.441406 366.132812 C 270.761719 366.132812 268.570312 363.941406 268.570312 361.261719 C 268.570312 358.582031 270.761719 356.390625 273.441406 356.390625 Z M 273.441406 380.75 L 278.316406 380.75 C 280.992188 380.75 283.1875 382.941406 283.1875 385.621094 C 283.1875 388.300781 280.992188 390.492188 278.316406 390.492188 L 273.441406 390.492188 C 270.761719 390.492188 268.570312 388.300781 268.570312 385.621094 C 268.570312 382.941406 270.761719 380.75 273.441406 380.75 Z M 273.441406 405.109375 L 278.316406 405.109375 C 280.992188 405.109375 283.1875 407.300781 283.1875 409.980469 C 283.1875 412.660156 280.992188 414.851562 278.316406 414.851562 L 273.441406 414.851562 C 270.761719 414.851562 268.570312 412.660156 268.570312 409.980469 C 268.570312 407.300781 270.761719 405.109375 273.441406 405.109375 Z M 247.378906 307.671875 L 256.148438 307.671875 C 258.828125 307.671875 261.019531 309.863281 261.019531 312.542969 C 261.019531 315.222656 258.828125 317.414062 256.148438 317.414062 L 247.378906 317.414062 C 244.699219 317.414062 242.503906 315.222656 242.503906 312.542969 C 242.503906 309.863281 244.699219 307.671875 247.378906 307.671875 Z M 247.378906 332.03125 L 256.148438 332.03125 C 258.828125 332.03125 261.019531 334.222656 261.019531 336.902344 C 261.019531 339.582031 258.828125 341.773438 256.148438 341.773438 L 247.378906 341.773438 C 244.699219 341.773438 242.503906 339.582031 242.503906 336.902344 C 242.503906 334.222656 244.699219 332.03125 247.378906 332.03125 Z M 247.378906 356.390625 L 256.148438 356.390625 C 258.828125 356.390625 261.019531 358.582031 261.019531 361.261719 C 261.019531 363.941406 258.828125 366.132812 256.148438 366.132812 L 247.378906 366.132812 C 244.699219 366.132812 242.503906 363.941406 242.503906 361.261719 C 242.503906 358.582031 244.699219 356.390625 247.378906 356.390625 Z M 247.378906 380.75 L 256.148438 380.75 C 258.828125 380.75 261.019531 382.941406 261.019531 385.621094 C 261.019531 388.300781 258.828125 390.492188 256.148438 390.492188 L 247.378906 390.492188 C 244.699219 390.492188 242.503906 388.300781 242.503906 385.621094 C 242.503906 382.941406 244.699219 380.75 247.378906 380.75 Z M 247.378906 405.109375 L 256.148438 405.109375 C 258.828125 405.109375 261.019531 407.300781 261.019531 409.980469 C 261.019531 412.660156 258.828125 414.851562 256.148438 414.851562 L 247.378906 414.851562 C 244.699219 414.851562 242.503906 412.660156 242.503906 409.980469 C 242.503906 407.300781 244.699219 405.109375 247.378906 405.109375 Z M 240.070312 429.710938 L 260.042969 446.273438 C 262.238281 448.222656 263.453125 450.902344 263.453125 453.828125 C 263.453125 456.75 262.238281 459.429688 260.042969 461.378906 L 240.070312 477.941406 C 239.09375 478.671875 238.121094 479.160156 236.902344 479.160156 C 235.441406 479.160156 234.222656 478.671875 233.25 477.453125 C 231.542969 475.507812 231.789062 472.339844 233.980469 470.632812 L 253.953125 454.070312 L 233.980469 437.503906 C 232.03125 435.800781 231.542969 432.632812 233.25 430.683594 C 234.953125 428.738281 237.878906 428.003906 240.070312 429.710938 Z M 221.3125 307.671875 L 230.082031 307.671875 C 232.761719 307.671875 234.953125 309.863281 234.953125 312.542969 C 234.953125 315.222656 232.761719 317.414062 230.082031 317.414062 L 221.3125 317.414062 C 218.632812 317.414062 216.441406 315.222656 216.441406 312.542969 C 216.441406 309.863281 218.632812 307.671875 221.3125 307.671875 Z M 221.3125 332.03125 L 230.082031 332.03125 C 232.761719 332.03125 234.953125 334.222656 234.953125 336.902344 C 234.953125 339.582031 232.761719 341.773438 230.082031 341.773438 L 221.3125 341.773438 C 218.632812 341.773438 216.441406 339.582031 216.441406 336.902344 C 216.441406 334.222656 218.632812 332.03125 221.3125 332.03125 Z M 221.3125 356.390625 L 230.082031 356.390625 C 232.761719 356.390625 234.953125 358.582031 234.953125 361.261719 C 234.953125 363.941406 232.761719 366.132812 230.082031 366.132812 L 221.3125 366.132812 C 218.632812 366.132812 216.441406 363.941406 216.441406 361.261719 C 216.441406 358.582031 218.632812 356.390625 221.3125 356.390625 Z M 221.3125 380.75 L 230.082031 380.75 C 232.761719 380.75 234.953125 382.941406 234.953125 385.621094 C 234.953125 388.300781 232.761719 390.492188 230.082031 390.492188 L 221.3125 390.492188 C 218.632812 390.492188 216.441406 388.300781 216.441406 385.621094 C 216.441406 382.941406 218.632812 380.75 221.3125 380.75 Z M 221.3125 405.109375 L 230.082031 405.109375 C 232.761719 405.109375 234.953125 407.300781 234.953125 409.980469 C 234.953125 412.660156 232.761719 414.851562 230.082031 414.851562 L 221.3125 414.851562 C 218.632812 414.851562 216.441406 412.660156 216.441406 409.980469 C 216.441406 407.300781 218.632812 405.109375 221.3125 405.109375 Z M 226.914062 431.171875 L 207.425781 479.890625 C 206.695312 481.839844 204.746094 483.058594 202.800781 483.058594 C 202.3125 483.058594 201.582031 483.058594 201.09375 482.8125 C 198.65625 481.839844 197.441406 478.917969 198.414062 476.480469 L 217.902344 427.761719 C 218.875 425.328125 221.800781 424.109375 224.234375 425.082031 C 226.671875 426.058594 227.890625 428.738281 226.914062 431.171875 Z M 195.246094 307.671875 L 204.015625 307.671875 C 206.695312 307.671875 208.890625 309.863281 208.890625 312.542969 C 208.890625 315.222656 206.695312 317.414062 204.015625 317.414062 L 195.246094 317.414062 C 192.566406 317.414062 190.375 315.222656 190.375 312.542969 C 190.375 309.863281 192.566406 307.671875 195.246094 307.671875 Z M 195.246094 332.03125 L 204.015625 332.03125 C 206.695312 332.03125 208.890625 334.222656 208.890625 336.902344 C 208.890625 339.582031 206.695312 341.773438 204.015625 341.773438 L 195.246094 341.773438 C 192.566406 341.773438 190.375 339.582031 190.375 336.902344 C 190.375 334.222656 192.566406 332.03125 195.246094 332.03125 Z M 195.246094 356.390625 L 204.015625 356.390625 C 206.695312 356.390625 208.890625 358.582031 208.890625 361.261719 C 208.890625 363.941406 206.695312 366.132812 204.015625 366.132812 L 195.246094 366.132812 C 192.566406 366.132812 190.375 363.941406 190.375 361.261719 C 190.375 358.582031 192.566406 356.390625 195.246094 356.390625 Z M 195.246094 380.75 L 204.015625 380.75 C 206.695312 380.75 208.890625 382.941406 208.890625 385.621094 C 208.890625 388.300781 206.695312 390.492188 204.015625 390.492188 L 195.246094 390.492188 C 192.566406 390.492188 190.375 388.300781 190.375 385.621094 C 190.375 382.941406 192.566406 380.75 195.246094 380.75 Z M 195.246094 405.109375 L 204.015625 405.109375 C 206.695312 405.109375 208.890625 407.300781 208.890625 409.980469 C 208.890625 412.660156 206.695312 414.851562 204.015625 414.851562 L 195.246094 414.851562 C 192.566406 414.851562 190.375 412.660156 190.375 409.980469 C 190.375 407.300781 192.566406 405.109375 195.246094 405.109375 Z M 168.9375 307.671875 L 177.707031 307.671875 C 180.386719 307.671875 182.582031 309.863281 182.582031 312.542969 C 182.582031 315.222656 180.386719 317.414062 177.707031 317.414062 L 168.9375 317.414062 C 166.257812 317.414062 164.066406 315.222656 164.066406 312.542969 C 164.066406 309.863281 166.257812 307.671875 168.9375 307.671875 Z M 168.9375 332.03125 L 177.707031 332.03125 C 180.386719 332.03125 182.582031 334.222656 182.582031 336.902344 C 182.582031 339.582031 180.386719 341.773438 177.707031 341.773438 L 168.9375 341.773438 C 166.257812 341.773438 164.066406 339.582031 164.066406 336.902344 C 164.066406 334.222656 166.257812 332.03125 168.9375 332.03125 Z M 168.9375 356.390625 L 177.707031 356.390625 C 180.386719 356.390625 182.582031 358.582031 182.582031 361.261719 C 182.582031 363.941406 180.386719 366.132812 177.707031 366.132812 L 168.9375 366.132812 C 166.257812 366.132812 164.066406 363.941406 164.066406 361.261719 C 164.066406 358.582031 166.257812 356.390625 168.9375 356.390625 Z M 168.9375 380.75 L 177.707031 380.75 C 180.386719 380.75 182.582031 382.941406 182.582031 385.621094 C 182.582031 388.300781 180.386719 390.492188 177.707031 390.492188 L 168.9375 390.492188 C 166.257812 390.492188 164.066406 388.300781 164.066406 385.621094 C 164.066406 382.941406 166.257812 380.75 168.9375 380.75 Z M 168.9375 405.109375 L 177.707031 405.109375 C 180.386719 405.109375 182.582031 407.300781 182.582031 409.980469 C 182.582031 412.660156 180.386719 414.851562 177.707031 414.851562 L 168.9375 414.851562 C 166.257812 414.851562 164.066406 412.660156 164.066406 409.980469 C 164.066406 407.300781 166.257812 405.109375 168.9375 405.109375 Z M 151.644531 414.851562 L 146.773438 414.851562 C 144.09375 414.851562 141.898438 412.660156 141.898438 409.980469 C 141.898438 407.300781 144.09375 405.109375 146.773438 405.109375 L 151.644531 405.109375 C 154.324219 405.109375 156.515625 407.300781 156.515625 409.980469 C 156.515625 412.660156 154.324219 414.851562 151.644531 414.851562 Z M 151.644531 390.492188 L 146.773438 390.492188 C 144.09375 390.492188 141.898438 388.300781 141.898438 385.621094 C 141.898438 382.941406 144.09375 380.75 146.773438 380.75 L 151.644531 380.75 C 154.324219 380.75 156.515625 382.941406 156.515625 385.621094 C 156.515625 388.300781 154.324219 390.492188 151.644531 390.492188 Z M 151.644531 366.132812 L 146.773438 366.132812 C 144.09375 366.132812 141.898438 363.941406 141.898438 361.261719 C 141.898438 358.582031 144.09375 356.390625 146.773438 356.390625 L 151.644531 356.390625 C 154.324219 356.390625 156.515625 358.582031 156.515625 361.261719 C 156.515625 363.941406 154.324219 366.132812 151.644531 366.132812 Z M 151.644531 341.773438 L 146.773438 341.773438 C 144.09375 341.773438 141.898438 339.582031 141.898438 336.902344 C 141.898438 334.222656 144.09375 332.03125 146.773438 332.03125 L 151.644531 332.03125 C 154.324219 332.03125 156.515625 334.222656 156.515625 336.902344 C 156.515625 339.582031 154.324219 341.773438 151.644531 341.773438 Z M 151.644531 317.414062 L 146.773438 317.414062 C 144.09375 317.414062 141.898438 315.222656 141.898438 312.542969 C 141.898438 309.863281 144.09375 307.671875 146.773438 307.671875 L 151.644531 307.671875 C 154.324219 307.671875 156.515625 309.863281 156.515625 312.542969 C 156.515625 315.222656 154.324219 317.414062 151.644531 317.414062 Z M 161.632812 453.828125 C 161.632812 450.902344 162.847656 448.222656 165.042969 446.273438 L 185.015625 429.710938 C 186.964844 428.003906 190.132812 428.25 191.835938 430.441406 C 193.542969 432.390625 193.296875 435.558594 191.105469 437.261719 L 171.375 453.828125 L 191.351562 470.390625 C 193.296875 472.09375 193.785156 475.261719 192.082031 477.210938 C 191.105469 478.429688 189.644531 478.917969 188.425781 478.917969 C 187.207031 478.917969 186.234375 478.429688 185.261719 477.699219 L 165.285156 461.132812 C 162.847656 459.429688 161.632812 456.75 161.632812 453.828125 Z M 334.34375 525.6875 C 334.34375 534.453125 327.277344 541.519531 318.507812 541.519531 L 167.964844 541.519531 C 171.375 537.132812 173.566406 531.773438 173.566406 525.6875 L 173.566406 514.722656 L 334.34375 514.722656 Z M 334.34375 525.6875 "/></g><g clip-rule="nonzero" clip-path="url(#clip2)"><path style=" stroke:none;fill-rule:nonzero;fill:rgb(84.309387%,24.708557%,13.729858%);fill-opacity:1;" d="M 607.984375 361.691406 C 591.359375 356.898438 581.769531 339.542969 586.570312 322.929688 C 591.367188 306.320312 608.734375 296.738281 625.363281 301.535156 C 641.992188 306.328125 651.578125 323.683594 646.78125 340.296875 C 641.980469 356.90625 624.609375 366.488281 607.984375 361.691406 Z M 679.75 364.324219 C 681.867188 360.238281 683.621094 355.890625 684.945312 351.300781 C 686.652344 345.382812 687.558594 339.429688 687.722656 333.542969 L 708.328125 325.769531 L 699.792969 291.3125 L 676.550781 293.390625 C 670.851562 284.46875 663.15625 276.796875 653.871094 271.105469 L 657.433594 249.382812 L 623.304688 239.542969 L 613.488281 260.667969 C 602.644531 261.152344 592.179688 264.132812 582.839844 269.1875 L 565.78125 255.230469 L 540.183594 279.839844 L 553.59375 298.902344 C 551.480469 302.988281 549.730469 307.335938 548.402344 311.921875 C 546.695312 317.84375 545.789062 323.796875 545.625 329.683594 L 525.019531 337.457031 L 533.550781 371.910156 L 556.796875 369.835938 C 562.496094 378.753906 570.191406 386.429688 579.476562 392.121094 L 575.910156 413.839844 L 610.042969 423.683594 L 619.855469 402.554688 C 630.703125 402.070312 641.167969 399.09375 650.503906 394.039062 L 667.566406 407.996094 L 693.164062 383.386719 L 679.75 364.324219 "/></g><g clip-rule="nonzero" clip-path="url(#clip3)"><path style=" stroke:none;fill-rule:nonzero;fill:rgb(19.999695%,54.508972%,54.899597%);fill-opacity:1;" d="M 749.082031 384.445312 C 738.039062 387.402344 726.683594 380.851562 723.726562 369.816406 C 720.765625 358.78125 727.320312 347.433594 738.363281 344.476562 C 749.410156 341.519531 760.761719 348.070312 763.722656 359.105469 C 766.683594 370.140625 760.128906 381.484375 749.082031 384.445312 Z M 790.589844 361.453125 C 790.390625 358.421875 789.898438 355.363281 789.078125 352.316406 C 788.023438 348.386719 786.5 344.707031 784.582031 341.320312 L 793.589844 329.894531 L 776.988281 313.308594 L 764.542969 322.414062 C 758.273438 319.308594 751.296875 317.589844 744.101562 317.539062 L 738.695312 304.03125 L 716.019531 310.105469 L 717.6875 325.40625 C 711.714844 329.375 706.808594 334.632812 703.253906 340.675781 L 688.832031 338.597656 L 682.757812 361.253906 L 696.859375 367.464844 C 697.054688 370.5 697.550781 373.554688 698.367188 376.605469 C 699.421875 380.535156 700.949219 384.214844 702.867188 387.597656 L 693.863281 399.023438 L 710.460938 415.613281 L 722.90625 406.511719 C 729.175781 409.613281 736.152344 411.332031 743.347656 411.382812 L 748.753906 424.890625 L 771.425781 418.820312 L 769.761719 403.515625 C 775.734375 399.542969 780.640625 394.289062 784.195312 388.242188 L 798.617188 390.324219 L 804.691406 367.664062 L 790.589844 361.453125 "/></g><g clip-rule="nonzero" clip-path="url(#clip4)"><path style=" stroke:none;fill-rule:nonzero;fill:rgb(87.838745%,63.139343%,10.5896%);fill-opacity:1;" d="M 642.011719 493.460938 C 631.339844 483.453125 630.808594 466.699219 640.820312 456.035156 C 650.835938 445.375 667.605469 444.847656 678.277344 454.851562 C 688.949219 464.855469 689.476562 481.613281 679.464844 492.277344 C 669.449219 502.9375 652.679688 503.46875 642.011719 493.460938 Z M 695.03125 523.050781 C 698.199219 520.789062 701.191406 518.1875 703.957031 515.246094 C 707.527344 511.449219 710.5 507.308594 712.890625 502.941406 L 731.402344 505.015625 L 738.253906 475.792969 L 719.957031 468.410156 C 719.101562 459.503906 716.265625 450.765625 711.464844 442.90625 L 722.519531 427.925781 L 700.617188 407.382812 L 685.085938 419.515625 C 676.734375 415.707031 667.703125 413.925781 658.726562 414.136719 L 651.261719 397.066406 L 622.503906 405.75 L 625.253906 425.261719 C 622.089844 427.523438 619.09375 430.125 616.328125 433.066406 C 612.761719 436.863281 609.785156 441.003906 607.394531 445.371094 L 588.882812 443.296875 L 582.03125 472.519531 L 600.332031 479.902344 C 601.183594 488.808594 604.019531 497.546875 608.820312 505.402344 L 597.765625 520.386719 L 619.667969 540.929688 L 635.199219 528.796875 C 643.550781 532.605469 652.582031 534.386719 661.558594 534.171875 L 669.027344 551.246094 L 697.78125 542.5625 L 695.03125 523.050781 "/></g><g clip-rule="nonzero" clip-path="url(#clip5)"><path style=" stroke:none;fill-rule:nonzero;fill:rgb(29.019165%,20.779419%,16.079712%);fill-opacity:1;" d="M 728.285156 282.679688 C 722.207031 282.679688 717.28125 277.757812 717.28125 271.683594 C 717.28125 265.613281 722.207031 260.691406 728.285156 260.691406 C 734.359375 260.691406 739.289062 265.613281 739.289062 271.683594 C 739.289062 277.757812 734.359375 282.679688 728.285156 282.679688 Z M 752.753906 276.582031 C 753.070312 275 753.238281 273.363281 753.238281 271.683594 C 753.238281 269.523438 752.960938 267.421875 752.445312 265.421875 L 758.640625 260.792969 L 752.402344 250 L 744.761719 252.960938 C 741.96875 250.507812 738.625 248.664062 734.9375 247.648438 L 734.023438 239.976562 L 721.546875 239.976562 L 720.292969 248.054688 C 716.683594 249.277344 713.441406 251.300781 710.785156 253.910156 L 703.667969 250.863281 L 697.429688 261.65625 L 703.8125 266.785156 C 703.5 268.371094 703.328125 270.007812 703.328125 271.683594 C 703.328125 273.84375 703.609375 275.945312 704.125 277.945312 L 697.929688 282.574219 L 704.167969 293.371094 L 711.808594 290.40625 C 714.597656 292.863281 717.945312 294.703125 721.632812 295.71875 L 722.546875 303.394531 L 735.023438 303.394531 L 736.273438 295.3125 C 739.886719 294.089844 743.125 292.070312 745.785156 289.457031 L 752.902344 292.503906 L 759.136719 281.710938 L 752.753906 276.582031 "/></g><g clip-rule="nonzero" clip-path="url(#clip6)"><path style=" stroke:none;fill-rule:evenodd;fill:rgb(19.999695%,61.178589%,83.529663%);fill-opacity:1;" d="M 1147.355469 250.707031 C 1224.039062 250.707031 1286.214844 312.757812 1286.214844 389.292969 C 1286.214844 465.835938 1224.039062 527.875 1147.355469 527.875 C 1070.664062 527.875 1008.488281 465.835938 1008.488281 389.292969 C 1008.488281 312.757812 1070.664062 250.707031 1147.355469 250.707031 "/></g><path style=" stroke:none;fill-rule:nonzero;fill:rgb(21.569824%,29.019165%,40.779114%);fill-opacity:1;" d="M 1021.320312 292.925781 C 1017.660156 292.925781 1014.691406 295.890625 1014.691406 299.542969 C 1014.691406 303.183594 1017.660156 306.144531 1021.320312 306.144531 L 1299.347656 306.144531 C 1303.007812 306.144531 1305.964844 303.183594 1305.964844 299.542969 C 1305.964844 295.890625 1303.007812 292.925781 1299.347656 292.925781 L 1021.320312 292.925781 "/><path style=" stroke:none;fill-rule:evenodd;fill:rgb(21.569824%,29.019165%,40.779114%);fill-opacity:1;" d="M 1034.550781 279.71875 L 1047.796875 279.71875 L 1047.796875 266.5 L 1034.550781 266.5 L 1034.550781 279.71875 "/><path style=" stroke:none;fill-rule:evenodd;fill:rgb(21.569824%,29.019165%,40.779114%);fill-opacity:1;" d="M 1054.414062 279.71875 L 1067.65625 279.71875 L 1067.65625 266.5 L 1054.414062 266.5 L 1054.414062 279.71875 "/><path style=" stroke:none;fill-rule:evenodd;fill:rgb(21.569824%,29.019165%,40.779114%);fill-opacity:1;" d="M 1074.273438 279.71875 L 1087.519531 279.71875 L 1087.519531 266.5 L 1074.273438 266.5 L 1074.273438 279.71875 "/><path style=" stroke:none;fill-rule:evenodd;fill:rgb(21.569824%,29.019165%,40.779114%);fill-opacity:1;" d="M 1140.472656 418.460938 L 1153.71875 418.460938 L 1153.71875 385.433594 L 1140.472656 385.433594 L 1140.472656 418.460938 "/><path style=" stroke:none;fill-rule:evenodd;fill:rgb(21.569824%,29.019165%,40.779114%);fill-opacity:1;" d="M 1160.332031 418.460938 L 1173.578125 418.460938 L 1173.578125 352.390625 L 1160.332031 352.390625 L 1160.332031 418.460938 "/><path style=" stroke:none;fill-rule:evenodd;fill:rgb(21.569824%,29.019165%,40.779114%);fill-opacity:1;" d="M 1180.195312 418.460938 L 1193.4375 418.460938 L 1193.4375 372.214844 L 1180.195312 372.214844 L 1180.195312 418.460938 "/><path style=" stroke:none;fill-rule:evenodd;fill:rgb(21.569824%,29.019165%,40.779114%);fill-opacity:1;" d="M 1200.054688 418.460938 L 1213.289062 418.460938 L 1213.289062 385.433594 L 1200.054688 385.433594 L 1200.054688 418.460938 "/><path style=" stroke:none;fill-rule:evenodd;fill:rgb(21.569824%,29.019165%,40.779114%);fill-opacity:1;" d="M 1219.917969 418.460938 L 1233.160156 418.460938 L 1233.160156 352.390625 L 1219.917969 352.390625 L 1219.917969 418.460938 "/><path style=" stroke:none;fill-rule:evenodd;fill:rgb(21.569824%,29.019165%,40.779114%);fill-opacity:1;" d="M 1239.777344 418.460938 L 1253.011719 418.460938 L 1253.011719 372.214844 L 1239.777344 372.214844 L 1239.777344 418.460938 "/><path style=" stroke:none;fill-rule:evenodd;fill:rgb(21.569824%,29.019165%,40.779114%);fill-opacity:1;" d="M 1140.472656 279.71875 L 1153.71875 279.71875 L 1153.71875 266.5 L 1140.472656 266.5 L 1140.472656 279.71875 "/><path style=" stroke:none;fill-rule:evenodd;fill:rgb(21.569824%,29.019165%,40.779114%);fill-opacity:1;" d="M 1160.332031 279.71875 L 1286.117188 279.71875 L 1286.117188 266.5 L 1160.332031 266.5 L 1160.332031 279.71875 "/><g clip-rule="nonzero" clip-path="url(#clip7)"><path style=" stroke:none;fill-rule:nonzero;fill:rgb(21.569824%,29.019165%,40.779114%);fill-opacity:1;" d="M 1021.320312 537.390625 L 1299.347656 537.390625 L 1299.347656 253.292969 L 1021.320312 253.292969 Z M 1305.976562 550.597656 L 1014.691406 550.597656 C 1011.042969 550.597656 1008.074219 547.636719 1008.074219 543.996094 L 1008.074219 246.679688 C 1008.074219 243.039062 1011.042969 240.078125 1014.691406 240.078125 L 1305.976562 240.078125 C 1309.625 240.078125 1312.59375 243.039062 1312.59375 246.679688 L 1312.59375 543.996094 C 1312.59375 547.636719 1309.625 550.597656 1305.976562 550.597656 "/></g><path style=" stroke:none;fill-rule:nonzero;fill:rgb(21.569824%,29.019165%,40.779114%);fill-opacity:1;" d="M 1047.796875 510.957031 L 1272.871094 510.957031 L 1272.871094 332.570312 L 1047.796875 332.570312 Z M 1279.488281 524.175781 L 1041.179688 524.175781 C 1037.519531 524.175781 1034.550781 521.210938 1034.550781 517.558594 L 1034.550781 325.96875 C 1034.550781 322.316406 1037.519531 319.351562 1041.179688 319.351562 L 1279.488281 319.351562 C 1283.148438 319.351562 1286.117188 322.316406 1286.117188 325.96875 L 1286.117188 517.558594 C 1286.117188 521.210938 1283.148438 524.175781 1279.488281 524.175781 "/><path style=" stroke:none;fill-rule:nonzero;fill:rgb(21.569824%,29.019165%,40.779114%);fill-opacity:1;" d="M 1113.996094 246.679688 C 1113.996094 243.039062 1111.027344 240.078125 1107.378906 240.078125 C 1103.71875 240.078125 1100.75 243.039062 1100.75 246.679688 L 1100.75 299.542969 C 1100.75 303.183594 1103.71875 306.144531 1107.378906 306.144531 C 1111.027344 306.144531 1113.996094 303.183594 1113.996094 299.542969 L 1113.996094 246.679688 "/><path style=" stroke:none;fill-rule:nonzero;fill:rgb(21.569824%,29.019165%,40.779114%);fill-opacity:1;" d="M 1100.75 325.96875 C 1100.75 322.316406 1097.792969 319.351562 1094.132812 319.351562 C 1090.476562 319.351562 1087.519531 322.316406 1087.519531 325.96875 L 1087.519531 517.570312 C 1087.519531 521.210938 1090.476562 524.175781 1094.132812 524.175781 C 1097.792969 524.175781 1100.75 521.210938 1100.75 517.570312 L 1100.75 325.96875 "/><path style=" stroke:none;fill-rule:nonzero;fill:rgb(21.569824%,29.019165%,40.779114%);fill-opacity:1;" d="M 1041.179688 444.886719 C 1037.519531 444.886719 1034.550781 447.847656 1034.550781 451.492188 C 1034.550781 455.144531 1037.519531 458.105469 1041.179688 458.105469 L 1094.132812 458.105469 C 1097.792969 458.105469 1100.75 455.144531 1100.75 451.492188 C 1100.75 447.847656 1097.792969 444.886719 1094.132812 444.886719 L 1041.179688 444.886719 "/><path style=" stroke:none;fill-rule:nonzero;fill:rgb(21.569824%,29.019165%,40.779114%);fill-opacity:1;" d="M 1041.179688 385.421875 C 1037.519531 385.421875 1034.550781 388.382812 1034.550781 392.035156 C 1034.550781 395.679688 1037.519531 398.640625 1041.179688 398.640625 L 1094.132812 398.640625 C 1097.792969 398.640625 1100.75 395.679688 1100.75 392.035156 C 1100.75 388.382812 1097.792969 385.421875 1094.132812 385.421875 L 1041.179688 385.421875 "/><path style=" stroke:none;fill-rule:nonzero;fill:rgb(21.569824%,29.019165%,40.779114%);fill-opacity:1;" d="M 1120.613281 444.886719 C 1116.960938 444.886719 1113.996094 447.847656 1113.996094 451.492188 C 1113.996094 455.144531 1116.960938 458.105469 1120.613281 458.105469 L 1140.472656 458.105469 C 1144.132812 458.105469 1147.101562 455.144531 1147.101562 451.492188 C 1147.101562 447.847656 1144.132812 444.886719 1140.472656 444.886719 L 1120.613281 444.886719 "/><path style=" stroke:none;fill-rule:nonzero;fill:rgb(21.569824%,29.019165%,40.779114%);fill-opacity:1;" d="M 1120.613281 425.066406 C 1116.960938 425.066406 1113.996094 428.027344 1113.996094 431.679688 C 1113.996094 435.320312 1116.960938 438.28125 1120.613281 438.28125 L 1140.472656 438.28125 C 1144.132812 438.28125 1147.101562 435.320312 1147.101562 431.679688 C 1147.101562 428.027344 1144.132812 425.066406 1140.472656 425.066406 L 1120.613281 425.066406 "/><path style=" stroke:none;fill-rule:nonzero;fill:rgb(21.569824%,29.019165%,40.779114%);fill-opacity:1;" d="M 1120.613281 464.707031 C 1116.960938 464.707031 1113.996094 467.671875 1113.996094 471.3125 C 1113.996094 474.964844 1116.960938 477.925781 1120.613281 477.925781 L 1140.472656 477.925781 C 1144.132812 477.925781 1147.101562 474.964844 1147.101562 471.3125 C 1147.101562 467.671875 1144.132812 464.707031 1140.472656 464.707031 L 1120.613281 464.707031 "/><path style=" stroke:none;fill-rule:nonzero;fill:rgb(21.569824%,29.019165%,40.779114%);fill-opacity:1;" d="M 1120.613281 484.53125 C 1116.960938 484.53125 1113.996094 487.492188 1113.996094 491.132812 C 1113.996094 494.785156 1116.960938 497.75 1120.613281 497.75 L 1140.472656 497.75 C 1144.132812 497.75 1147.101562 494.785156 1147.101562 491.132812 C 1147.101562 487.492188 1144.132812 484.53125 1140.472656 484.53125 L 1120.613281 484.53125 "/><path style=" stroke:none;fill-rule:nonzero;fill:rgb(21.569824%,29.019165%,40.779114%);fill-opacity:1;" d="M 1160.332031 444.886719 C 1156.675781 444.886719 1153.71875 447.847656 1153.71875 451.492188 C 1153.71875 455.144531 1156.675781 458.105469 1160.332031 458.105469 L 1180.195312 458.105469 C 1183.84375 458.105469 1186.8125 455.144531 1186.8125 451.492188 C 1186.8125 447.847656 1183.84375 444.886719 1180.195312 444.886719 L 1160.332031 444.886719 "/><path style=" stroke:none;fill-rule:nonzero;fill:rgb(21.569824%,29.019165%,40.779114%);fill-opacity:1;" d="M 1160.332031 464.707031 C 1156.675781 464.707031 1153.71875 467.671875 1153.71875 471.3125 C 1153.71875 474.964844 1156.675781 477.925781 1160.332031 477.925781 L 1180.195312 477.925781 C 1183.84375 477.925781 1186.8125 474.964844 1186.8125 471.3125 C 1186.8125 467.671875 1183.84375 464.707031 1180.195312 464.707031 L 1160.332031 464.707031 "/><path style=" stroke:none;fill-rule:nonzero;fill:rgb(21.569824%,29.019165%,40.779114%);fill-opacity:1;" d="M 1160.332031 484.53125 C 1156.675781 484.53125 1153.71875 487.492188 1153.71875 491.132812 C 1153.71875 494.785156 1156.675781 497.75 1160.332031 497.75 L 1180.195312 497.75 C 1183.84375 497.75 1186.8125 494.785156 1186.8125 491.132812 C 1186.8125 487.492188 1183.84375 484.53125 1180.195312 484.53125 L 1160.332031 484.53125 "/><path style=" stroke:none;fill-rule:nonzero;fill:rgb(21.569824%,29.019165%,40.779114%);fill-opacity:1;" d="M 1200.054688 464.707031 C 1196.40625 464.707031 1193.4375 467.671875 1193.4375 471.3125 C 1193.4375 474.964844 1196.40625 477.925781 1200.054688 477.925781 L 1219.917969 477.925781 C 1223.566406 477.925781 1226.53125 474.964844 1226.53125 471.3125 C 1226.53125 467.671875 1223.566406 464.707031 1219.917969 464.707031 L 1200.054688 464.707031 "/><path style=" stroke:none;fill-rule:nonzero;fill:rgb(21.569824%,29.019165%,40.779114%);fill-opacity:1;" d="M 1200.054688 484.53125 C 1196.40625 484.53125 1193.4375 487.492188 1193.4375 491.132812 C 1193.4375 494.785156 1196.40625 497.75 1200.054688 497.75 L 1219.917969 497.75 C 1223.566406 497.75 1226.53125 494.785156 1226.53125 491.132812 C 1226.53125 487.492188 1223.566406 484.53125 1219.917969 484.53125 L 1200.054688 484.53125 "/><path style=" stroke:none;fill-rule:nonzero;fill:rgb(0%,0%,0%);fill-opacity:1;" d="M 486.164062 390.644531 L 443.769531 354.96875 C 442.1875 353.539062 439.65625 353.859375 438.234375 355.441406 C 436.808594 357.027344 437.125 359.566406 438.707031 360.992188 L 473.824219 390.488281 L 348.378906 390.488281 C 346.164062 390.488281 344.425781 392.230469 344.425781 394.453125 C 344.425781 396.671875 346.164062 398.417969 348.378906 398.417969 L 473.984375 398.417969 L 438.707031 428.070312 C 437.125 429.496094 436.808594 431.875 438.234375 433.617188 C 439.023438 434.570312 440.132812 435.046875 441.238281 435.046875 C 442.1875 435.046875 442.976562 434.730469 443.769531 434.09375 L 486.164062 398.417969 C 487.90625 398.097656 489.171875 396.511719 489.171875 394.609375 C 489.171875 392.707031 487.90625 390.964844 486.164062 390.644531 Z M 486.164062 390.644531 "/><path style=" stroke:none;fill-rule:nonzero;fill:rgb(0%,0%,0%);fill-opacity:1;" d="M 977.179688 390.644531 L 934.785156 354.96875 C 933.203125 353.539062 930.671875 353.859375 929.246094 355.441406 C 927.824219 357.027344 928.140625 359.566406 929.722656 360.992188 L 964.839844 390.488281 L 839.394531 390.488281 C 837.179688 390.488281 835.441406 392.230469 835.441406 394.453125 C 835.441406 396.671875 837.179688 398.417969 839.394531 398.417969 L 965 398.417969 L 929.722656 428.070312 C 928.140625 429.496094 927.824219 431.875 929.246094 433.617188 C 930.039062 434.570312 931.144531 435.046875 932.253906 435.046875 C 933.203125 435.046875 933.992188 434.730469 934.785156 434.09375 L 977.179688 398.417969 C 978.917969 398.097656 980.183594 396.511719 980.183594 394.609375 C 980.183594 392.707031 978.917969 390.964844 977.179688 390.644531 Z M 977.179688 390.644531 "/><g style="fill:rgb(0%,0%,0%);fill-opacity:1;"><g transform="translate(136.144979, 599.337054)"><path style="stroke:none;" d="M 14.15625 0 L 13.734375 -2.890625 L 13.59375 -2.890625 C 12.675781 -1.710938 11.734375 -0.878906 10.765625 -0.390625 C 9.796875 0.0976562 8.648438 0.34375 7.328125 0.34375 C 5.535156 0.34375 4.140625 -0.113281 3.140625 -1.03125 C 2.140625 -1.957031 1.640625 -3.234375 1.640625 -4.859375 C 1.640625 -6.640625 2.378906 -8.019531 3.859375 -9 C 5.347656 -9.988281 7.5 -10.515625 10.3125 -10.578125 L 13.796875 -10.671875 L 13.796875 -11.890625 C 13.796875 -13.617188 13.441406 -14.925781 12.734375 -15.8125 C 12.035156 -16.695312 10.898438 -17.140625 9.328125 -17.140625 C 7.640625 -17.140625 5.882812 -16.671875 4.0625 -15.734375 L 3.453125 -17.171875 C 5.453125 -18.117188 7.429688 -18.59375 9.390625 -18.59375 C 11.398438 -18.59375 12.898438 -18.070312 13.890625 -17.03125 C 14.878906 -15.988281 15.375 -14.363281 15.375 -12.15625 L 15.375 0 Z M 7.421875 -1.171875 C 9.378906 -1.171875 10.921875 -1.726562 12.046875 -2.84375 C 13.171875 -3.957031 13.734375 -5.507812 13.734375 -7.5 L 13.734375 -9.296875 L 10.53125 -9.15625 C 7.96875 -9.03125 6.140625 -8.628906 5.046875 -7.953125 C 3.953125 -7.273438 3.40625 -6.222656 3.40625 -4.796875 C 3.40625 -3.648438 3.753906 -2.757812 4.453125 -2.125 C 5.160156 -1.488281 6.148438 -1.171875 7.421875 -1.171875 Z M 7.421875 -1.171875 "/></g></g><g style="fill:rgb(0%,0%,0%);fill-opacity:1;"><g transform="translate(154.38019, 599.337054)"><path style="stroke:none;" d="M 10.875 0.34375 C 8.0625 0.34375 6.007812 -0.710938 4.71875 -2.828125 L 4.609375 -2.828125 L 4.65625 -1.40625 C 4.695312 -0.582031 4.71875 0.320312 4.71875 1.3125 L 4.71875 8.265625 L 3.0625 8.265625 L 3.0625 -18.265625 L 4.46875 -18.265625 L 4.796875 -15.671875 L 4.890625 -15.671875 C 6.148438 -17.640625 8.15625 -18.625 10.90625 -18.625 C 13.375 -18.625 15.253906 -17.8125 16.546875 -16.1875 C 17.835938 -14.570312 18.484375 -12.21875 18.484375 -9.125 C 18.484375 -6.125 17.800781 -3.796875 16.4375 -2.140625 C 15.082031 -0.484375 13.226562 0.34375 10.875 0.34375 Z M 10.84375 -1.140625 C 12.707031 -1.140625 14.148438 -1.832031 15.171875 -3.21875 C 16.203125 -4.613281 16.71875 -6.5625 16.71875 -9.0625 C 16.71875 -14.425781 14.78125 -17.109375 10.90625 -17.109375 C 8.78125 -17.109375 7.21875 -16.519531 6.21875 -15.34375 C 5.21875 -14.175781 4.71875 -12.269531 4.71875 -9.625 L 4.71875 -9.09375 C 4.71875 -6.238281 5.195312 -4.195312 6.15625 -2.96875 C 7.113281 -1.75 8.675781 -1.140625 10.84375 -1.140625 Z M 10.84375 -1.140625 "/></g></g><g style="fill:rgb(0%,0%,0%);fill-opacity:1;"><g transform="translate(174.867491, 599.337054)"><path style="stroke:none;" d="M 10.875 0.34375 C 8.0625 0.34375 6.007812 -0.710938 4.71875 -2.828125 L 4.609375 -2.828125 L 4.65625 -1.40625 C 4.695312 -0.582031 4.71875 0.320312 4.71875 1.3125 L 4.71875 8.265625 L 3.0625 8.265625 L 3.0625 -18.265625 L 4.46875 -18.265625 L 4.796875 -15.671875 L 4.890625 -15.671875 C 6.148438 -17.640625 8.15625 -18.625 10.90625 -18.625 C 13.375 -18.625 15.253906 -17.8125 16.546875 -16.1875 C 17.835938 -14.570312 18.484375 -12.21875 18.484375 -9.125 C 18.484375 -6.125 17.800781 -3.796875 16.4375 -2.140625 C 15.082031 -0.484375 13.226562 0.34375 10.875 0.34375 Z M 10.84375 -1.140625 C 12.707031 -1.140625 14.148438 -1.832031 15.171875 -3.21875 C 16.203125 -4.613281 16.71875 -6.5625 16.71875 -9.0625 C 16.71875 -14.425781 14.78125 -17.109375 10.90625 -17.109375 C 8.78125 -17.109375 7.21875 -16.519531 6.21875 -15.34375 C 5.21875 -14.175781 4.71875 -12.269531 4.71875 -9.625 L 4.71875 -9.09375 C 4.71875 -6.238281 5.195312 -4.195312 6.15625 -2.96875 C 7.113281 -1.75 8.675781 -1.140625 10.84375 -1.140625 Z M 10.84375 -1.140625 "/></g></g><g style="fill:rgb(0%,0%,0%);fill-opacity:1;"><g transform="translate(195.354792, 599.337054)"><path style="stroke:none;" d="M 2.71875 -1.3125 C 2.71875 -2.40625 3.164062 -2.953125 4.0625 -2.953125 C 4.988281 -2.953125 5.453125 -2.40625 5.453125 -1.3125 C 5.453125 -0.207031 4.988281 0.34375 4.0625 0.34375 C 3.164062 0.34375 2.71875 -0.207031 2.71875 -1.3125 Z M 2.71875 -1.3125 "/></g></g><g style="fill:rgb(0%,0%,0%);fill-opacity:1;"><g transform="translate(203.539632, 599.337054)"><path style="stroke:none;" d="M 10.25 -18.625 C 11.019531 -18.625 11.847656 -18.546875 12.734375 -18.390625 L 12.421875 -16.796875 C 11.660156 -16.984375 10.867188 -17.078125 10.046875 -17.078125 C 8.492188 -17.078125 7.21875 -16.414062 6.21875 -15.09375 C 5.21875 -13.769531 4.71875 -12.097656 4.71875 -10.078125 L 4.71875 0 L 3.0625 0 L 3.0625 -18.265625 L 4.46875 -18.265625 L 4.640625 -14.96875 L 4.75 -14.96875 C 5.5 -16.320312 6.300781 -17.269531 7.15625 -17.8125 C 8.007812 -18.351562 9.039062 -18.625 10.25 -18.625 Z M 10.25 -18.625 "/></g></g><g style="fill:rgb(0%,0%,0%);fill-opacity:1;"><g transform="translate(216.934531, 599.337054)"><path style="stroke:none;" d="M 18.171875 -9.15625 C 18.171875 -6.175781 17.445312 -3.847656 16 -2.171875 C 14.550781 -0.492188 12.554688 0.34375 10.015625 0.34375 C 8.410156 0.34375 7 -0.0390625 5.78125 -0.8125 C 4.5625 -1.59375 3.625 -2.703125 2.96875 -4.140625 C 2.320312 -5.585938 2 -7.257812 2 -9.15625 C 2 -12.132812 2.722656 -14.457031 4.171875 -16.125 C 5.617188 -17.789062 7.601562 -18.625 10.125 -18.625 C 12.632812 -18.625 14.601562 -17.78125 16.03125 -16.09375 C 17.457031 -14.40625 18.171875 -12.09375 18.171875 -9.15625 Z M 3.75 -9.15625 C 3.75 -6.644531 4.300781 -4.6875 5.40625 -3.28125 C 6.507812 -1.875 8.066406 -1.171875 10.078125 -1.171875 C 12.097656 -1.171875 13.660156 -1.875 14.765625 -3.28125 C 15.867188 -4.6875 16.421875 -6.644531 16.421875 -9.15625 C 16.421875 -11.675781 15.863281 -13.628906 14.75 -15.015625 C 13.632812 -16.410156 12.066406 -17.109375 10.046875 -17.109375 C 8.035156 -17.109375 6.484375 -16.414062 5.390625 -15.03125 C 4.296875 -13.644531 3.75 -11.6875 3.75 -9.15625 Z M 3.75 -9.15625 "/></g></g><g style="fill:rgb(0%,0%,0%);fill-opacity:1;"><g transform="translate(237.1025, 599.337054)"><path style="stroke:none;" d="M 10.78125 -18.625 C 13.332031 -18.625 15.253906 -17.816406 16.546875 -16.203125 C 17.835938 -14.597656 18.484375 -12.25 18.484375 -9.15625 C 18.484375 -6.125 17.800781 -3.78125 16.4375 -2.125 C 15.082031 -0.476562 13.171875 0.34375 10.703125 0.34375 C 9.398438 0.34375 8.226562 0.0703125 7.1875 -0.46875 C 6.144531 -1.007812 5.320312 -1.769531 4.71875 -2.75 L 4.578125 -2.75 L 4.09375 0 L 3.0625 0 L 3.0625 -26.15625 L 4.71875 -26.15625 L 4.71875 -19.578125 C 4.71875 -18.597656 4.695312 -17.691406 4.65625 -16.859375 L 4.609375 -15.421875 L 4.71875 -15.421875 C 5.414062 -16.523438 6.253906 -17.332031 7.234375 -17.84375 C 8.210938 -18.363281 9.394531 -18.625 10.78125 -18.625 Z M 10.734375 -17.109375 C 8.585938 -17.109375 7.046875 -16.488281 6.109375 -15.25 C 5.179688 -14.019531 4.71875 -11.988281 4.71875 -9.15625 L 4.71875 -8.875 C 4.71875 -6.113281 5.203125 -4.132812 6.171875 -2.9375 C 7.140625 -1.738281 8.648438 -1.140625 10.703125 -1.140625 C 12.703125 -1.140625 14.203125 -1.835938 15.203125 -3.234375 C 16.210938 -4.628906 16.71875 -6.613281 16.71875 -9.1875 C 16.71875 -14.46875 14.722656 -17.109375 10.734375 -17.109375 Z M 10.734375 -17.109375 "/></g></g><g style="fill:rgb(0%,0%,0%);fill-opacity:1;"><g transform="translate(257.589801, 599.337054)"><path style="stroke:none;" d="M 18.171875 -9.15625 C 18.171875 -6.175781 17.445312 -3.847656 16 -2.171875 C 14.550781 -0.492188 12.554688 0.34375 10.015625 0.34375 C 8.410156 0.34375 7 -0.0390625 5.78125 -0.8125 C 4.5625 -1.59375 3.625 -2.703125 2.96875 -4.140625 C 2.320312 -5.585938 2 -7.257812 2 -9.15625 C 2 -12.132812 2.722656 -14.457031 4.171875 -16.125 C 5.617188 -17.789062 7.601562 -18.625 10.125 -18.625 C 12.632812 -18.625 14.601562 -17.78125 16.03125 -16.09375 C 17.457031 -14.40625 18.171875 -12.09375 18.171875 -9.15625 Z M 3.75 -9.15625 C 3.75 -6.644531 4.300781 -4.6875 5.40625 -3.28125 C 6.507812 -1.875 8.066406 -1.171875 10.078125 -1.171875 C 12.097656 -1.171875 13.660156 -1.875 14.765625 -3.28125 C 15.867188 -4.6875 16.421875 -6.644531 16.421875 -9.15625 C 16.421875 -11.675781 15.863281 -13.628906 14.75 -15.015625 C 13.632812 -16.410156 12.066406 -17.109375 10.046875 -17.109375 C 8.035156 -17.109375 6.484375 -16.414062 5.390625 -15.03125 C 4.296875 -13.644531 3.75 -11.6875 3.75 -9.15625 Z M 3.75 -9.15625 "/></g></g><g style="fill:rgb(0%,0%,0%);fill-opacity:1;"><g transform="translate(277.757771, 599.337054)"><path style="stroke:none;" d="M 7.875 -1.140625 C 8.9375 -1.140625 9.859375 -1.226562 10.640625 -1.40625 L 10.640625 -0.0625 C 9.828125 0.207031 8.894531 0.34375 7.84375 0.34375 C 6.226562 0.34375 5.035156 -0.0859375 4.265625 -0.953125 C 3.503906 -1.816406 3.125 -3.175781 3.125 -5.03125 L 3.125 -16.828125 L 0.421875 -16.828125 L 0.421875 -17.796875 L 3.125 -18.5625 L 3.96875 -22.6875 L 4.828125 -22.6875 L 4.828125 -18.265625 L 10.1875 -18.265625 L 10.1875 -16.828125 L 4.828125 -16.828125 L 4.828125 -5.265625 C 4.828125 -3.859375 5.070312 -2.816406 5.5625 -2.140625 C 6.050781 -1.472656 6.820312 -1.140625 7.875 -1.140625 Z M 7.875 -1.140625 "/></g></g><g style="fill:rgb(0%,0%,0%);fill-opacity:1;"><g transform="translate(526.758316, 599.337054)"><path style="stroke:none;" d="M 16.65625 -7.390625 C 16.65625 -5.898438 16.097656 -4.6875 14.984375 -3.75 C 13.878906 -2.8125 12.347656 -2.21875 10.390625 -1.96875 L 10.390625 2 L 9.03125 2 L 9.03125 -1.90625 C 8 -1.925781 6.875 -2.050781 5.65625 -2.28125 C 4.4375 -2.507812 3.46875 -2.789062 2.75 -3.125 L 2.75 -4.859375 C 3.59375 -4.453125 4.597656 -4.109375 5.765625 -3.828125 C 6.941406 -3.546875 8.03125 -3.40625 9.03125 -3.40625 L 9.03125 -11.953125 C 7.40625 -12.441406 6.195312 -12.929688 5.40625 -13.421875 C 4.625 -13.921875 4.050781 -14.503906 3.6875 -15.171875 C 3.332031 -15.847656 3.15625 -16.664062 3.15625 -17.625 C 3.15625 -19.019531 3.6875 -20.191406 4.75 -21.140625 C 5.8125 -22.085938 7.238281 -22.671875 9.03125 -22.890625 L 9.03125 -26.125 L 10.390625 -26.125 L 10.390625 -22.921875 C 12.597656 -22.828125 14.5625 -22.425781 16.28125 -21.71875 L 15.734375 -20.203125 C 14.148438 -20.898438 12.367188 -21.300781 10.390625 -21.40625 L 10.390625 -13.25 C 12.773438 -12.507812 14.414062 -11.703125 15.3125 -10.828125 C 16.207031 -9.953125 16.65625 -8.804688 16.65625 -7.390625 Z M 14.8125 -7.46875 C 14.8125 -8.414062 14.457031 -9.195312 13.75 -9.8125 C 13.039062 -10.4375 11.921875 -10.972656 10.390625 -11.421875 L 10.390625 -3.515625 C 11.753906 -3.660156 12.832031 -4.078125 13.625 -4.765625 C 14.414062 -5.460938 14.8125 -6.363281 14.8125 -7.46875 Z M 4.984375 -17.625 C 4.984375 -16.664062 5.300781 -15.878906 5.9375 -15.265625 C 6.582031 -14.648438 7.613281 -14.128906 9.03125 -13.703125 L 9.03125 -21.3125 C 7.695312 -21.132812 6.6875 -20.707031 6 -20.03125 C 5.320312 -19.363281 4.984375 -18.5625 4.984375 -17.625 Z M 4.984375 -17.625 "/></g></g><g style="fill:rgb(0%,0%,0%);fill-opacity:1;"><g transform="translate(546.405285, 599.337054)"><path style="stroke:none;" d=""/></g></g><g style="fill:rgb(0%,0%,0%);fill-opacity:1;"><g transform="translate(555.346418, 599.337054)"><path style="stroke:none;" d="M 10.25 -18.625 C 11.019531 -18.625 11.847656 -18.546875 12.734375 -18.390625 L 12.421875 -16.796875 C 11.660156 -16.984375 10.867188 -17.078125 10.046875 -17.078125 C 8.492188 -17.078125 7.21875 -16.414062 6.21875 -15.09375 C 5.21875 -13.769531 4.71875 -12.097656 4.71875 -10.078125 L 4.71875 0 L 3.0625 0 L 3.0625 -18.265625 L 4.46875 -18.265625 L 4.640625 -14.96875 L 4.75 -14.96875 C 5.5 -16.320312 6.300781 -17.269531 7.15625 -17.8125 C 8.007812 -18.351562 9.039062 -18.625 10.25 -18.625 Z M 10.25 -18.625 "/></g></g><g style="fill:rgb(0%,0%,0%);fill-opacity:1;"><g transform="translate(568.741317, 599.337054)"><path style="stroke:none;" d="M 18.171875 -9.15625 C 18.171875 -6.175781 17.445312 -3.847656 16 -2.171875 C 14.550781 -0.492188 12.554688 0.34375 10.015625 0.34375 C 8.410156 0.34375 7 -0.0390625 5.78125 -0.8125 C 4.5625 -1.59375 3.625 -2.703125 2.96875 -4.140625 C 2.320312 -5.585938 2 -7.257812 2 -9.15625 C 2 -12.132812 2.722656 -14.457031 4.171875 -16.125 C 5.617188 -17.789062 7.601562 -18.625 10.125 -18.625 C 12.632812 -18.625 14.601562 -17.78125 16.03125 -16.09375 C 17.457031 -14.40625 18.171875 -12.09375 18.171875 -9.15625 Z M 3.75 -9.15625 C 3.75 -6.644531 4.300781 -4.6875 5.40625 -3.28125 C 6.507812 -1.875 8.066406 -1.171875 10.078125 -1.171875 C 12.097656 -1.171875 13.660156 -1.875 14.765625 -3.28125 C 15.867188 -4.6875 16.421875 -6.644531 16.421875 -9.15625 C 16.421875 -11.675781 15.863281 -13.628906 14.75 -15.015625 C 13.632812 -16.410156 12.066406 -17.109375 10.046875 -17.109375 C 8.035156 -17.109375 6.484375 -16.414062 5.390625 -15.03125 C 4.296875 -13.644531 3.75 -11.6875 3.75 -9.15625 Z M 3.75 -9.15625 "/></g></g><g style="fill:rgb(0%,0%,0%);fill-opacity:1;"><g transform="translate(588.909286, 599.337054)"><path style="stroke:none;" d="M 10.78125 -18.625 C 13.332031 -18.625 15.253906 -17.816406 16.546875 -16.203125 C 17.835938 -14.597656 18.484375 -12.25 18.484375 -9.15625 C 18.484375 -6.125 17.800781 -3.78125 16.4375 -2.125 C 15.082031 -0.476562 13.171875 0.34375 10.703125 0.34375 C 9.398438 0.34375 8.226562 0.0703125 7.1875 -0.46875 C 6.144531 -1.007812 5.320312 -1.769531 4.71875 -2.75 L 4.578125 -2.75 L 4.09375 0 L 3.0625 0 L 3.0625 -26.15625 L 4.71875 -26.15625 L 4.71875 -19.578125 C 4.71875 -18.597656 4.695312 -17.691406 4.65625 -16.859375 L 4.609375 -15.421875 L 4.71875 -15.421875 C 5.414062 -16.523438 6.253906 -17.332031 7.234375 -17.84375 C 8.210938 -18.363281 9.394531 -18.625 10.78125 -18.625 Z M 10.734375 -17.109375 C 8.585938 -17.109375 7.046875 -16.488281 6.109375 -15.25 C 5.179688 -14.019531 4.71875 -11.988281 4.71875 -9.15625 L 4.71875 -8.875 C 4.71875 -6.113281 5.203125 -4.132812 6.171875 -2.9375 C 7.140625 -1.738281 8.648438 -1.140625 10.703125 -1.140625 C 12.703125 -1.140625 14.203125 -1.835938 15.203125 -3.234375 C 16.210938 -4.628906 16.71875 -6.613281 16.71875 -9.1875 C 16.71875 -14.46875 14.722656 -17.109375 10.734375 -17.109375 Z M 10.734375 -17.109375 "/></g></g><g style="fill:rgb(0%,0%,0%);fill-opacity:1;"><g transform="translate(609.396587, 599.337054)"><path style="stroke:none;" d="M 18.171875 -9.15625 C 18.171875 -6.175781 17.445312 -3.847656 16 -2.171875 C 14.550781 -0.492188 12.554688 0.34375 10.015625 0.34375 C 8.410156 0.34375 7 -0.0390625 5.78125 -0.8125 C 4.5625 -1.59375 3.625 -2.703125 2.96875 -4.140625 C 2.320312 -5.585938 2 -7.257812 2 -9.15625 C 2 -12.132812 2.722656 -14.457031 4.171875 -16.125 C 5.617188 -17.789062 7.601562 -18.625 10.125 -18.625 C 12.632812 -18.625 14.601562 -17.78125 16.03125 -16.09375 C 17.457031 -14.40625 18.171875 -12.09375 18.171875 -9.15625 Z M 3.75 -9.15625 C 3.75 -6.644531 4.300781 -4.6875 5.40625 -3.28125 C 6.507812 -1.875 8.066406 -1.171875 10.078125 -1.171875 C 12.097656 -1.171875 13.660156 -1.875 14.765625 -3.28125 C 15.867188 -4.6875 16.421875 -6.644531 16.421875 -9.15625 C 16.421875 -11.675781 15.863281 -13.628906 14.75 -15.015625 C 13.632812 -16.410156 12.066406 -17.109375 10.046875 -17.109375 C 8.035156 -17.109375 6.484375 -16.414062 5.390625 -15.03125 C 4.296875 -13.644531 3.75 -11.6875 3.75 -9.15625 Z M 3.75 -9.15625 "/></g></g><g style="fill:rgb(0%,0%,0%);fill-opacity:1;"><g transform="translate(629.564556, 599.337054)"><path style="stroke:none;" d="M 7.875 -1.140625 C 8.9375 -1.140625 9.859375 -1.226562 10.640625 -1.40625 L 10.640625 -0.0625 C 9.828125 0.207031 8.894531 0.34375 7.84375 0.34375 C 6.226562 0.34375 5.035156 -0.0859375 4.265625 -0.953125 C 3.503906 -1.816406 3.125 -3.175781 3.125 -5.03125 L 3.125 -16.828125 L 0.421875 -16.828125 L 0.421875 -17.796875 L 3.125 -18.5625 L 3.96875 -22.6875 L 4.828125 -22.6875 L 4.828125 -18.265625 L 10.1875 -18.265625 L 10.1875 -16.828125 L 4.828125 -16.828125 L 4.828125 -5.265625 C 4.828125 -3.859375 5.070312 -2.816406 5.5625 -2.140625 C 6.050781 -1.472656 6.820312 -1.140625 7.875 -1.140625 Z M 7.875 -1.140625 "/></g></g><g style="fill:rgb(0%,0%,0%);fill-opacity:1;"><g transform="translate(641.093912, 599.337054)"><path style="stroke:none;" d=""/></g></g><g style="fill:rgb(0%,0%,0%);fill-opacity:1;"><g transform="translate(650.035045, 599.337054)"><path style="stroke:none;" d="M 14.15625 0 L 13.734375 -2.890625 L 13.59375 -2.890625 C 12.675781 -1.710938 11.734375 -0.878906 10.765625 -0.390625 C 9.796875 0.0976562 8.648438 0.34375 7.328125 0.34375 C 5.535156 0.34375 4.140625 -0.113281 3.140625 -1.03125 C 2.140625 -1.957031 1.640625 -3.234375 1.640625 -4.859375 C 1.640625 -6.640625 2.378906 -8.019531 3.859375 -9 C 5.347656 -9.988281 7.5 -10.515625 10.3125 -10.578125 L 13.796875 -10.671875 L 13.796875 -11.890625 C 13.796875 -13.617188 13.441406 -14.925781 12.734375 -15.8125 C 12.035156 -16.695312 10.898438 -17.140625 9.328125 -17.140625 C 7.640625 -17.140625 5.882812 -16.671875 4.0625 -15.734375 L 3.453125 -17.171875 C 5.453125 -18.117188 7.429688 -18.59375 9.390625 -18.59375 C 11.398438 -18.59375 12.898438 -18.070312 13.890625 -17.03125 C 14.878906 -15.988281 15.375 -14.363281 15.375 -12.15625 L 15.375 0 Z M 7.421875 -1.171875 C 9.378906 -1.171875 10.921875 -1.726562 12.046875 -2.84375 C 13.171875 -3.957031 13.734375 -5.507812 13.734375 -7.5 L 13.734375 -9.296875 L 10.53125 -9.15625 C 7.96875 -9.03125 6.140625 -8.628906 5.046875 -7.953125 C 3.953125 -7.273438 3.40625 -6.222656 3.40625 -4.796875 C 3.40625 -3.648438 3.753906 -2.757812 4.453125 -2.125 C 5.160156 -1.488281 6.148438 -1.171875 7.421875 -1.171875 Z M 7.421875 -1.171875 "/></g></g><g style="fill:rgb(0%,0%,0%);fill-opacity:1;"><g transform="translate(668.270256, 599.337054)"><path style="stroke:none;" d="M 10.875 0.34375 C 8.0625 0.34375 6.007812 -0.710938 4.71875 -2.828125 L 4.609375 -2.828125 L 4.65625 -1.40625 C 4.695312 -0.582031 4.71875 0.320312 4.71875 1.3125 L 4.71875 8.265625 L 3.0625 8.265625 L 3.0625 -18.265625 L 4.46875 -18.265625 L 4.796875 -15.671875 L 4.890625 -15.671875 C 6.148438 -17.640625 8.15625 -18.625 10.90625 -18.625 C 13.375 -18.625 15.253906 -17.8125 16.546875 -16.1875 C 17.835938 -14.570312 18.484375 -12.21875 18.484375 -9.125 C 18.484375 -6.125 17.800781 -3.796875 16.4375 -2.140625 C 15.082031 -0.484375 13.226562 0.34375 10.875 0.34375 Z M 10.84375 -1.140625 C 12.707031 -1.140625 14.148438 -1.832031 15.171875 -3.21875 C 16.203125 -4.613281 16.71875 -6.5625 16.71875 -9.0625 C 16.71875 -14.425781 14.78125 -17.109375 10.90625 -17.109375 C 8.78125 -17.109375 7.21875 -16.519531 6.21875 -15.34375 C 5.21875 -14.175781 4.71875 -12.269531 4.71875 -9.625 L 4.71875 -9.09375 C 4.71875 -6.238281 5.195312 -4.195312 6.15625 -2.96875 C 7.113281 -1.75 8.675781 -1.140625 10.84375 -1.140625 Z M 10.84375 -1.140625 "/></g></g><g style="fill:rgb(0%,0%,0%);fill-opacity:1;"><g transform="translate(688.757557, 599.337054)"><path style="stroke:none;" d="M 10.875 0.34375 C 8.0625 0.34375 6.007812 -0.710938 4.71875 -2.828125 L 4.609375 -2.828125 L 4.65625 -1.40625 C 4.695312 -0.582031 4.71875 0.320312 4.71875 1.3125 L 4.71875 8.265625 L 3.0625 8.265625 L 3.0625 -18.265625 L 4.46875 -18.265625 L 4.796875 -15.671875 L 4.890625 -15.671875 C 6.148438 -17.640625 8.15625 -18.625 10.90625 -18.625 C 13.375 -18.625 15.253906 -17.8125 16.546875 -16.1875 C 17.835938 -14.570312 18.484375 -12.21875 18.484375 -9.125 C 18.484375 -6.125 17.800781 -3.796875 16.4375 -2.140625 C 15.082031 -0.484375 13.226562 0.34375 10.875 0.34375 Z M 10.84375 -1.140625 C 12.707031 -1.140625 14.148438 -1.832031 15.171875 -3.21875 C 16.203125 -4.613281 16.71875 -6.5625 16.71875 -9.0625 C 16.71875 -14.425781 14.78125 -17.109375 10.90625 -17.109375 C 8.78125 -17.109375 7.21875 -16.519531 6.21875 -15.34375 C 5.21875 -14.175781 4.71875 -12.269531 4.71875 -9.625 L 4.71875 -9.09375 C 4.71875 -6.238281 5.195312 -4.195312 6.15625 -2.96875 C 7.113281 -1.75 8.675781 -1.140625 10.84375 -1.140625 Z M 10.84375 -1.140625 "/></g></g><g style="fill:rgb(0%,0%,0%);fill-opacity:1;"><g transform="translate(709.244858, 599.337054)"><path style="stroke:none;" d="M 2.71875 -1.3125 C 2.71875 -2.40625 3.164062 -2.953125 4.0625 -2.953125 C 4.988281 -2.953125 5.453125 -2.40625 5.453125 -1.3125 C 5.453125 -0.207031 4.988281 0.34375 4.0625 0.34375 C 3.164062 0.34375 2.71875 -0.207031 2.71875 -1.3125 Z M 2.71875 -1.3125 "/></g></g><g style="fill:rgb(0%,0%,0%);fill-opacity:1;"><g transform="translate(717.429698, 599.337054)"><path style="stroke:none;" d="M 10.25 -18.625 C 11.019531 -18.625 11.847656 -18.546875 12.734375 -18.390625 L 12.421875 -16.796875 C 11.660156 -16.984375 10.867188 -17.078125 10.046875 -17.078125 C 8.492188 -17.078125 7.21875 -16.414062 6.21875 -15.09375 C 5.21875 -13.769531 4.71875 -12.097656 4.71875 -10.078125 L 4.71875 0 L 3.0625 0 L 3.0625 -18.265625 L 4.46875 -18.265625 L 4.640625 -14.96875 L 4.75 -14.96875 C 5.5 -16.320312 6.300781 -17.269531 7.15625 -17.8125 C 8.007812 -18.351562 9.039062 -18.625 10.25 -18.625 Z M 10.25 -18.625 "/></g></g><g style="fill:rgb(0%,0%,0%);fill-opacity:1;"><g transform="translate(730.824608, 599.337054)"><path style="stroke:none;" d="M 18.171875 -9.15625 C 18.171875 -6.175781 17.445312 -3.847656 16 -2.171875 C 14.550781 -0.492188 12.554688 0.34375 10.015625 0.34375 C 8.410156 0.34375 7 -0.0390625 5.78125 -0.8125 C 4.5625 -1.59375 3.625 -2.703125 2.96875 -4.140625 C 2.320312 -5.585938 2 -7.257812 2 -9.15625 C 2 -12.132812 2.722656 -14.457031 4.171875 -16.125 C 5.617188 -17.789062 7.601562 -18.625 10.125 -18.625 C 12.632812 -18.625 14.601562 -17.78125 16.03125 -16.09375 C 17.457031 -14.40625 18.171875 -12.09375 18.171875 -9.15625 Z M 3.75 -9.15625 C 3.75 -6.644531 4.300781 -4.6875 5.40625 -3.28125 C 6.507812 -1.875 8.066406 -1.171875 10.078125 -1.171875 C 12.097656 -1.171875 13.660156 -1.875 14.765625 -3.28125 C 15.867188 -4.6875 16.421875 -6.644531 16.421875 -9.15625 C 16.421875 -11.675781 15.863281 -13.628906 14.75 -15.015625 C 13.632812 -16.410156 12.066406 -17.109375 10.046875 -17.109375 C 8.035156 -17.109375 6.484375 -16.414062 5.390625 -15.03125 C 4.296875 -13.644531 3.75 -11.6875 3.75 -9.15625 Z M 3.75 -9.15625 "/></g></g><g style="fill:rgb(0%,0%,0%);fill-opacity:1;"><g transform="translate(750.992578, 599.337054)"><path style="stroke:none;" d="M 10.78125 -18.625 C 13.332031 -18.625 15.253906 -17.816406 16.546875 -16.203125 C 17.835938 -14.597656 18.484375 -12.25 18.484375 -9.15625 C 18.484375 -6.125 17.800781 -3.78125 16.4375 -2.125 C 15.082031 -0.476562 13.171875 0.34375 10.703125 0.34375 C 9.398438 0.34375 8.226562 0.0703125 7.1875 -0.46875 C 6.144531 -1.007812 5.320312 -1.769531 4.71875 -2.75 L 4.578125 -2.75 L 4.09375 0 L 3.0625 0 L 3.0625 -26.15625 L 4.71875 -26.15625 L 4.71875 -19.578125 C 4.71875 -18.597656 4.695312 -17.691406 4.65625 -16.859375 L 4.609375 -15.421875 L 4.71875 -15.421875 C 5.414062 -16.523438 6.253906 -17.332031 7.234375 -17.84375 C 8.210938 -18.363281 9.394531 -18.625 10.78125 -18.625 Z M 10.734375 -17.109375 C 8.585938 -17.109375 7.046875 -16.488281 6.109375 -15.25 C 5.179688 -14.019531 4.71875 -11.988281 4.71875 -9.15625 L 4.71875 -8.875 C 4.71875 -6.113281 5.203125 -4.132812 6.171875 -2.9375 C 7.140625 -1.738281 8.648438 -1.140625 10.703125 -1.140625 C 12.703125 -1.140625 14.203125 -1.835938 15.203125 -3.234375 C 16.210938 -4.628906 16.71875 -6.613281 16.71875 -9.1875 C 16.71875 -14.46875 14.722656 -17.109375 10.734375 -17.109375 Z M 10.734375 -17.109375 "/></g></g><g style="fill:rgb(0%,0%,0%);fill-opacity:1;"><g transform="translate(771.479879, 599.337054)"><path style="stroke:none;" d="M 18.171875 -9.15625 C 18.171875 -6.175781 17.445312 -3.847656 16 -2.171875 C 14.550781 -0.492188 12.554688 0.34375 10.015625 0.34375 C 8.410156 0.34375 7 -0.0390625 5.78125 -0.8125 C 4.5625 -1.59375 3.625 -2.703125 2.96875 -4.140625 C 2.320312 -5.585938 2 -7.257812 2 -9.15625 C 2 -12.132812 2.722656 -14.457031 4.171875 -16.125 C 5.617188 -17.789062 7.601562 -18.625 10.125 -18.625 C 12.632812 -18.625 14.601562 -17.78125 16.03125 -16.09375 C 17.457031 -14.40625 18.171875 -12.09375 18.171875 -9.15625 Z M 3.75 -9.15625 C 3.75 -6.644531 4.300781 -4.6875 5.40625 -3.28125 C 6.507812 -1.875 8.066406 -1.171875 10.078125 -1.171875 C 12.097656 -1.171875 13.660156 -1.875 14.765625 -3.28125 C 15.867188 -4.6875 16.421875 -6.644531 16.421875 -9.15625 C 16.421875 -11.675781 15.863281 -13.628906 14.75 -15.015625 C 13.632812 -16.410156 12.066406 -17.109375 10.046875 -17.109375 C 8.035156 -17.109375 6.484375 -16.414062 5.390625 -15.03125 C 4.296875 -13.644531 3.75 -11.6875 3.75 -9.15625 Z M 3.75 -9.15625 "/></g></g><g style="fill:rgb(0%,0%,0%);fill-opacity:1;"><g transform="translate(791.647848, 599.337054)"><path style="stroke:none;" d="M 7.875 -1.140625 C 8.9375 -1.140625 9.859375 -1.226562 10.640625 -1.40625 L 10.640625 -0.0625 C 9.828125 0.207031 8.894531 0.34375 7.84375 0.34375 C 6.226562 0.34375 5.035156 -0.0859375 4.265625 -0.953125 C 3.503906 -1.816406 3.125 -3.175781 3.125 -5.03125 L 3.125 -16.828125 L 0.421875 -16.828125 L 0.421875 -17.796875 L 3.125 -18.5625 L 3.96875 -22.6875 L 4.828125 -22.6875 L 4.828125 -18.265625 L 10.1875 -18.265625 L 10.1875 -16.828125 L 4.828125 -16.828125 L 4.828125 -5.265625 C 4.828125 -3.859375 5.070312 -2.816406 5.5625 -2.140625 C 6.050781 -1.472656 6.820312 -1.140625 7.875 -1.140625 Z M 7.875 -1.140625 "/></g></g><g style="fill:rgb(0%,0%,0%);fill-opacity:1;"><g transform="translate(1098.211703, 599.337054)"><path style="stroke:none;" d="M 4.71875 0 L 3.0625 0 L 3.0625 -26.15625 L 4.71875 -26.15625 Z M 4.71875 0 "/></g></g><g style="fill:rgb(0%,0%,0%);fill-opacity:1;"><g transform="translate(1105.993184, 599.337054)"><path style="stroke:none;" d="M 18.171875 -9.15625 C 18.171875 -6.175781 17.445312 -3.847656 16 -2.171875 C 14.550781 -0.492188 12.554688 0.34375 10.015625 0.34375 C 8.410156 0.34375 7 -0.0390625 5.78125 -0.8125 C 4.5625 -1.59375 3.625 -2.703125 2.96875 -4.140625 C 2.320312 -5.585938 2 -7.257812 2 -9.15625 C 2 -12.132812 2.722656 -14.457031 4.171875 -16.125 C 5.617188 -17.789062 7.601562 -18.625 10.125 -18.625 C 12.632812 -18.625 14.601562 -17.78125 16.03125 -16.09375 C 17.457031 -14.40625 18.171875 -12.09375 18.171875 -9.15625 Z M 3.75 -9.15625 C 3.75 -6.644531 4.300781 -4.6875 5.40625 -3.28125 C 6.507812 -1.875 8.066406 -1.171875 10.078125 -1.171875 C 12.097656 -1.171875 13.660156 -1.875 14.765625 -3.28125 C 15.867188 -4.6875 16.421875 -6.644531 16.421875 -9.15625 C 16.421875 -11.675781 15.863281 -13.628906 14.75 -15.015625 C 13.632812 -16.410156 12.066406 -17.109375 10.046875 -17.109375 C 8.035156 -17.109375 6.484375 -16.414062 5.390625 -15.03125 C 4.296875 -13.644531 3.75 -11.6875 3.75 -9.15625 Z M 3.75 -9.15625 "/></g></g><g style="fill:rgb(0%,0%,0%);fill-opacity:1;"><g transform="translate(1126.161153, 599.337054)"><path style="stroke:none;" d="M 17.3125 -18.265625 L 17.3125 -17.109375 L 13.53125 -16.875 C 14.539062 -15.625 15.046875 -14.242188 15.046875 -12.734375 C 15.046875 -10.972656 14.457031 -9.546875 13.28125 -8.453125 C 12.113281 -7.367188 10.546875 -6.828125 8.578125 -6.828125 C 7.742188 -6.828125 7.160156 -6.859375 6.828125 -6.921875 C 6.160156 -6.578125 5.65625 -6.164062 5.3125 -5.6875 C 4.96875 -5.21875 4.796875 -4.722656 4.796875 -4.203125 C 4.796875 -3.617188 5.015625 -3.191406 5.453125 -2.921875 C 5.898438 -2.648438 6.644531 -2.515625 7.6875 -2.515625 L 10.875 -2.515625 C 12.851562 -2.515625 14.367188 -2.113281 15.421875 -1.3125 C 16.484375 -0.519531 17.015625 0.660156 17.015625 2.234375 C 17.015625 4.160156 16.226562 5.644531 14.65625 6.6875 C 13.09375 7.738281 10.867188 8.265625 7.984375 8.265625 C 5.679688 8.265625 3.898438 7.820312 2.640625 6.9375 C 1.378906 6.050781 0.75 4.820312 0.75 3.25 C 0.75 1.988281 1.140625 0.941406 1.921875 0.109375 C 2.703125 -0.710938 3.757812 -1.273438 5.09375 -1.578125 C 4.539062 -1.816406 4.097656 -2.148438 3.765625 -2.578125 C 3.441406 -3.015625 3.28125 -3.507812 3.28125 -4.0625 C 3.28125 -5.289062 4.054688 -6.367188 5.609375 -7.296875 C 4.546875 -7.734375 3.71875 -8.414062 3.125 -9.34375 C 2.53125 -10.28125 2.234375 -11.359375 2.234375 -12.578125 C 2.234375 -14.398438 2.8125 -15.863281 3.96875 -16.96875 C 5.132812 -18.070312 6.703125 -18.625 8.671875 -18.625 C 9.867188 -18.625 10.800781 -18.503906 11.46875 -18.265625 Z M 2.515625 3.09375 C 2.515625 5.601562 4.382812 6.859375 8.125 6.859375 C 12.914062 6.859375 15.3125 5.328125 15.3125 2.265625 C 15.3125 1.171875 14.9375 0.378906 14.1875 -0.109375 C 13.4375 -0.609375 12.21875 -0.859375 10.53125 -0.859375 L 7.546875 -0.859375 C 4.191406 -0.859375 2.515625 0.457031 2.515625 3.09375 Z M 3.921875 -12.578125 C 3.921875 -11.160156 4.347656 -10.0625 5.203125 -9.28125 C 6.054688 -8.507812 7.203125 -8.125 8.640625 -8.125 C 10.160156 -8.125 11.328125 -8.507812 12.140625 -9.28125 C 12.953125 -10.050781 13.359375 -11.171875 13.359375 -12.640625 C 13.359375 -14.191406 12.941406 -15.359375 12.109375 -16.140625 C 11.273438 -16.921875 10.109375 -17.3125 8.609375 -17.3125 C 7.148438 -17.3125 6.003906 -16.894531 5.171875 -16.0625 C 4.335938 -15.226562 3.921875 -14.066406 3.921875 -12.578125 Z M 3.921875 -12.578125 "/></g></g><g style="fill:rgb(0%,0%,0%);fill-opacity:1;"><g transform="translate(1144.161071, 599.337054)"><path style="stroke:none;" d="M 2.71875 -1.3125 C 2.71875 -2.40625 3.164062 -2.953125 4.0625 -2.953125 C 4.988281 -2.953125 5.453125 -2.40625 5.453125 -1.3125 C 5.453125 -0.207031 4.988281 0.34375 4.0625 0.34375 C 3.164062 0.34375 2.71875 -0.207031 2.71875 -1.3125 Z M 2.71875 -1.3125 "/></g></g><g style="fill:rgb(0%,0%,0%);fill-opacity:1;"><g transform="translate(1152.345911, 599.337054)"><path style="stroke:none;" d="M 15.796875 0 L 15.796875 -11.84375 C 15.796875 -13.6875 15.410156 -15.023438 14.640625 -15.859375 C 13.867188 -16.691406 12.671875 -17.109375 11.046875 -17.109375 C 8.859375 -17.109375 7.253906 -16.554688 6.234375 -15.453125 C 5.222656 -14.347656 4.71875 -12.554688 4.71875 -10.078125 L 4.71875 0 L 3.0625 0 L 3.0625 -26.15625 L 4.71875 -26.15625 L 4.71875 -17.828125 L 4.640625 -15.5 L 4.75 -15.5 C 5.4375 -16.59375 6.300781 -17.382812 7.34375 -17.875 C 8.382812 -18.375 9.679688 -18.625 11.234375 -18.625 C 15.378906 -18.625 17.453125 -16.398438 17.453125 -11.953125 L 17.453125 0 Z M 15.796875 0 "/></g></g><g style="fill:rgb(0%,0%,0%);fill-opacity:1;"><g transform="translate(1172.648333, 599.337054)"><path style="stroke:none;" d="M 7.875 -1.140625 C 8.9375 -1.140625 9.859375 -1.226562 10.640625 -1.40625 L 10.640625 -0.0625 C 9.828125 0.207031 8.894531 0.34375 7.84375 0.34375 C 6.226562 0.34375 5.035156 -0.0859375 4.265625 -0.953125 C 3.503906 -1.816406 3.125 -3.175781 3.125 -5.03125 L 3.125 -16.828125 L 0.421875 -16.828125 L 0.421875 -17.796875 L 3.125 -18.5625 L 3.96875 -22.6875 L 4.828125 -22.6875 L 4.828125 -18.265625 L 10.1875 -18.265625 L 10.1875 -16.828125 L 4.828125 -16.828125 L 4.828125 -5.265625 C 4.828125 -3.859375 5.070312 -2.816406 5.5625 -2.140625 C 6.050781 -1.472656 6.820312 -1.140625 7.875 -1.140625 Z M 7.875 -1.140625 "/></g></g><g style="fill:rgb(0%,0%,0%);fill-opacity:1;"><g transform="translate(1184.177689, 599.337054)"><path style="stroke:none;" d="M 25.890625 0 L 25.890625 -11.984375 C 25.890625 -13.765625 25.539062 -15.0625 24.84375 -15.875 C 24.144531 -16.695312 23.078125 -17.109375 21.640625 -17.109375 C 19.773438 -17.109375 18.394531 -16.59375 17.5 -15.5625 C 16.601562 -14.53125 16.15625 -12.910156 16.15625 -10.703125 L 16.15625 0 L 14.453125 0 L 14.453125 -12.484375 C 14.453125 -15.566406 13.039062 -17.109375 10.21875 -17.109375 C 8.300781 -17.109375 6.90625 -16.550781 6.03125 -15.4375 C 5.15625 -14.320312 4.71875 -12.535156 4.71875 -10.078125 L 4.71875 0 L 3.0625 0 L 3.0625 -18.265625 L 4.4375 -18.265625 L 4.796875 -15.765625 L 4.890625 -15.765625 C 5.390625 -16.671875 6.101562 -17.375 7.03125 -17.875 C 7.96875 -18.375 9 -18.625 10.125 -18.625 C 13 -18.625 14.847656 -17.539062 15.671875 -15.375 L 15.734375 -15.375 C 16.328125 -16.414062 17.125 -17.21875 18.125 -17.78125 C 19.125 -18.34375 20.265625 -18.625 21.546875 -18.625 C 23.535156 -18.625 25.03125 -18.085938 26.03125 -17.015625 C 27.03125 -15.953125 27.53125 -14.265625 27.53125 -11.953125 L 27.53125 0 Z M 25.890625 0 "/></g></g><g style="fill:rgb(0%,0%,0%);fill-opacity:1;"><g transform="translate(1214.564096, 599.337054)"><path style="stroke:none;" d="M 4.71875 0 L 3.0625 0 L 3.0625 -26.15625 L 4.71875 -26.15625 Z M 4.71875 0 "/></g></g><g style="fill:rgb(0%,0%,0%);fill-opacity:1;"><g transform="translate(81.000002, 123.281265)"><path style="stroke:none;" d="M 2.921875 -40.21875 L 15.40625 -40.21875 C 19.175781 -40.21875 22.179688 -39.410156 24.421875 -37.796875 C 26.660156 -36.191406 27.78125 -33.585938 27.78125 -29.984375 C 27.78125 -25.953125 26.109375 -23.078125 22.765625 -21.359375 C 28.484375 -20.347656 31.34375 -16.96875 31.34375 -11.21875 C 31.34375 -7.832031 30.171875 -5.113281 27.828125 -3.0625 C 25.492188 -1.019531 22.28125 0 18.1875 0 L 2.921875 0 Z M 12.09375 -24.46875 L 12.828125 -24.46875 C 14.867188 -24.46875 16.394531 -24.828125 17.40625 -25.546875 C 18.414062 -26.265625 18.921875 -27.4375 18.921875 -29.0625 C 18.921875 -31.789062 16.890625 -33.15625 12.828125 -33.15625 L 12.09375 -33.15625 Z M 12.09375 -7.0625 L 14.96875 -7.0625 C 19.445312 -7.0625 21.6875 -8.554688 21.6875 -11.546875 C 21.6875 -13.335938 21.125 -14.625 20 -15.40625 C 18.882812 -16.1875 17.207031 -16.578125 14.96875 -16.578125 L 12.09375 -16.578125 Z M 12.09375 -7.0625 "/></g></g><g style="fill:rgb(0%,0%,0%);fill-opacity:1;"><g transform="translate(118.34253, 123.281265)"><path style="stroke:none;" d="M 23.34375 -40.21875 L 39.578125 0 L 29.734375 0 L 26.765625 -8.046875 L 11.453125 -8.046875 L 8.484375 0 L -1.359375 0 L 14.875 -40.21875 Z M 23.640625 -16.09375 L 19.15625 -27.78125 L 19.0625 -27.78125 L 14.578125 -16.09375 Z M 23.640625 -16.09375 "/></g></g><g style="fill:rgb(0%,0%,0%);fill-opacity:1;"><g transform="translate(161.437566, 123.281265)"><path style="stroke:none;" d="M 17.75 -40.953125 C 19.925781 -40.953125 22.050781 -40.632812 24.125 -40 C 26.207031 -39.363281 27.753906 -38.738281 28.765625 -38.125 L 30.21875 -37.140625 L 26.515625 -29.828125 C 26.222656 -30.023438 25.816406 -30.273438 25.296875 -30.578125 C 24.773438 -30.890625 23.800781 -31.304688 22.375 -31.828125 C 20.945312 -32.347656 19.613281 -32.609375 18.375 -32.609375 C 16.851562 -32.609375 15.675781 -32.28125 14.84375 -31.625 C 14.007812 -30.976562 13.59375 -30.101562 13.59375 -29 C 13.59375 -28.445312 13.785156 -27.9375 14.171875 -27.46875 C 14.566406 -27 15.234375 -26.492188 16.171875 -25.953125 C 17.117188 -25.421875 17.953125 -24.992188 18.671875 -24.671875 C 19.390625 -24.347656 20.492188 -23.859375 21.984375 -23.203125 C 24.585938 -22.097656 26.804688 -20.59375 28.640625 -18.6875 C 30.472656 -16.789062 31.390625 -14.640625 31.390625 -12.234375 C 31.390625 -9.929688 30.972656 -7.914062 30.140625 -6.1875 C 29.316406 -4.46875 28.179688 -3.117188 26.734375 -2.140625 C 25.285156 -1.171875 23.6875 -0.453125 21.9375 0.015625 C 20.1875 0.492188 18.285156 0.734375 16.234375 0.734375 C 14.472656 0.734375 12.75 0.550781 11.0625 0.1875 C 9.375 -0.164062 7.960938 -0.609375 6.828125 -1.140625 C 5.691406 -1.679688 4.664062 -2.210938 3.75 -2.734375 C 2.84375 -3.253906 2.175781 -3.691406 1.75 -4.046875 L 1.125 -4.578125 L 5.703125 -12.28125 C 6.085938 -11.957031 6.625 -11.539062 7.3125 -11.03125 C 8 -10.53125 9.207031 -9.859375 10.9375 -9.015625 C 12.675781 -8.171875 14.210938 -7.75 15.546875 -7.75 C 19.421875 -7.75 21.359375 -9.066406 21.359375 -11.703125 C 21.359375 -12.253906 21.21875 -12.765625 20.9375 -13.234375 C 20.664062 -13.703125 20.175781 -14.171875 19.46875 -14.640625 C 18.769531 -15.117188 18.148438 -15.492188 17.609375 -15.765625 C 17.078125 -16.046875 16.203125 -16.46875 14.984375 -17.03125 C 13.765625 -17.601562 12.863281 -18.035156 12.28125 -18.328125 C 9.84375 -19.535156 7.957031 -21.039062 6.625 -22.84375 C 5.289062 -24.644531 4.625 -26.585938 4.625 -28.671875 C 4.625 -32.273438 5.957031 -35.222656 8.625 -37.515625 C 11.289062 -39.804688 14.332031 -40.953125 17.75 -40.953125 Z M 17.75 -40.953125 "/></g></g><g style="fill:rgb(0%,0%,0%);fill-opacity:1;"><g transform="translate(199.072593, 123.281265)"><path style="stroke:none;" d="M 12.09375 -40.21875 L 12.09375 0 L 2.921875 0 L 2.921875 -40.21875 Z M 12.09375 -40.21875 "/></g></g><g style="fill:rgb(0%,0%,0%);fill-opacity:1;"><g transform="translate(218.962607, 123.281265)"><path style="stroke:none;" d="M 24.328125 -8.28125 C 25.722656 -8.28125 27.078125 -8.492188 28.390625 -8.921875 C 29.710938 -9.347656 30.679688 -9.753906 31.296875 -10.140625 L 32.21875 -10.78125 L 36.125 -2.96875 C 35.988281 -2.875 35.804688 -2.742188 35.578125 -2.578125 C 35.359375 -2.421875 34.832031 -2.125 34 -1.6875 C 33.175781 -1.25 32.289062 -0.863281 31.34375 -0.53125 C 30.40625 -0.207031 29.171875 0.0820312 27.640625 0.34375 C 26.109375 0.601562 24.53125 0.734375 22.90625 0.734375 C 19.175781 0.734375 15.632812 -0.179688 12.28125 -2.015625 C 8.9375 -3.859375 6.238281 -6.390625 4.1875 -9.609375 C 2.144531 -12.828125 1.125 -16.300781 1.125 -20.03125 C 1.125 -22.863281 1.722656 -25.578125 2.921875 -28.171875 C 4.128906 -30.773438 5.726562 -33.003906 7.71875 -34.859375 C 9.71875 -36.710938 12.050781 -38.191406 14.71875 -39.296875 C 17.382812 -40.398438 20.113281 -40.953125 22.90625 -40.953125 C 25.507812 -40.953125 27.90625 -40.640625 30.09375 -40.015625 C 32.289062 -39.398438 33.847656 -38.785156 34.765625 -38.171875 L 36.125 -37.25 L 32.21875 -29.4375 C 31.988281 -29.632812 31.644531 -29.867188 31.1875 -30.140625 C 30.738281 -30.421875 29.832031 -30.789062 28.46875 -31.25 C 27.101562 -31.707031 25.722656 -31.9375 24.328125 -31.9375 C 22.117188 -31.9375 20.132812 -31.578125 18.375 -30.859375 C 16.625 -30.140625 15.234375 -29.195312 14.203125 -28.03125 C 13.179688 -26.863281 12.398438 -25.601562 11.859375 -24.25 C 11.328125 -22.90625 11.0625 -21.535156 11.0625 -20.140625 C 11.0625 -17.078125 12.207031 -14.332031 14.5 -11.90625 C 16.789062 -9.488281 20.066406 -8.28125 24.328125 -8.28125 Z M 24.328125 -8.28125 "/></g></g><g style="fill:rgb(0%,0%,0%);fill-opacity:1;"><g transform="translate(260.546383, 123.281265)"><path style="stroke:none;" d=""/></g></g><g style="fill:rgb(0%,0%,0%);fill-opacity:1;"><g transform="translate(278.73014, 123.281265)"><path style="stroke:none;" d="M 26.171875 -40.21875 L 26.171875 -32.171875 L 12.09375 -32.171875 L 12.09375 -24.1875 L 25.109375 -24.1875 L 25.109375 -16.140625 L 12.09375 -16.140625 L 12.09375 0 L 2.921875 0 L 2.921875 -40.21875 Z M 26.171875 -40.21875 "/></g></g><g style="fill:rgb(0%,0%,0%);fill-opacity:1;"><g transform="translate(311.24642, 123.281265)"><path style="stroke:none;" d="M 12.09375 -40.21875 L 12.09375 -8.046875 L 25.9375 -8.046875 L 25.9375 0 L 2.921875 0 L 2.921875 -40.21875 Z M 12.09375 -40.21875 "/></g></g><g style="fill:rgb(0%,0%,0%);fill-opacity:1;"><g transform="translate(343.665196, 123.281265)"><path style="stroke:none;" d="M 1.125 -20.140625 C 1.125 -25.953125 3.101562 -30.875 7.0625 -34.90625 C 11.03125 -38.9375 15.8125 -40.953125 21.40625 -40.953125 C 27.019531 -40.953125 31.789062 -38.941406 35.71875 -34.921875 C 39.65625 -30.910156 41.625 -25.984375 41.625 -20.140625 C 41.625 -14.253906 39.691406 -9.300781 35.828125 -5.28125 C 31.960938 -1.269531 27.15625 0.734375 21.40625 0.734375 C 15.519531 0.734375 10.664062 -1.253906 6.84375 -5.234375 C 3.03125 -9.222656 1.125 -14.191406 1.125 -20.140625 Z M 11.015625 -20.140625 C 11.015625 -18.023438 11.335938 -16.097656 11.984375 -14.359375 C 12.640625 -12.617188 13.78125 -11.144531 15.40625 -9.9375 C 17.03125 -8.738281 19.03125 -8.140625 21.40625 -8.140625 C 24.8125 -8.140625 27.382812 -9.304688 29.125 -11.640625 C 30.863281 -13.984375 31.734375 -16.816406 31.734375 -20.140625 C 31.734375 -23.421875 30.847656 -26.238281 29.078125 -28.59375 C 27.304688 -30.945312 24.75 -32.125 21.40625 -32.125 C 18.082031 -32.125 15.519531 -30.945312 13.71875 -28.59375 C 11.914062 -26.238281 11.015625 -23.421875 11.015625 -20.140625 Z M 11.015625 -20.140625 "/></g></g><g style="fill:rgb(0%,0%,0%);fill-opacity:1;"><g transform="translate(391.293993, 123.281265)"><path style="stroke:none;" d="M 33.78125 0 L 27.34375 -22.578125 L 20.90625 0 L 10.71875 0 L -0.734375 -40.21875 L 9.453125 -40.21875 L 16.328125 -12.625 L 16.578125 -12.625 L 23.890625 -40.21875 L 30.8125 -40.21875 L 38.125 -12.625 L 38.359375 -12.625 L 45.234375 -40.21875 L 55.375 -40.21875 L 43.921875 0 Z M 33.78125 0 "/></g></g><g style="fill:rgb(0%,0%,0%);fill-opacity:1;"><g transform="translate(81.000002, 163.987512)"><path style="stroke:none;" d="M 12.546875 -3.953125 L 5.609375 -3.953125 L 4.296875 0 L 0.09375 0 L 7.234375 -19.203125 L 10.90625 -19.203125 L 18.09375 0 L 13.875 0 Z M 6.6875 -7.15625 L 11.484375 -7.15625 L 9.078125 -14.34375 Z M 6.6875 -7.15625 "/></g></g><g style="fill:rgb(0%,0%,0%);fill-opacity:1;"><g transform="translate(101.866994, 163.987512)"><path style="stroke:none;" d="M 5.671875 -3.171875 L 14.0625 -3.171875 L 14.0625 0 L 1.71875 0 L 1.71875 -19.203125 L 5.671875 -19.203125 Z M 5.671875 -3.171875 "/></g></g><g style="fill:rgb(0%,0%,0%);fill-opacity:1;"><g transform="translate(119.187599, 163.987512)"><path style="stroke:none;" d="M 5.671875 -3.171875 L 14.0625 -3.171875 L 14.0625 0 L 1.71875 0 L 1.71875 -19.203125 L 5.671875 -19.203125 Z M 5.671875 -3.171875 "/></g></g><g style="fill:rgb(0%,0%,0%);fill-opacity:1;"><g transform="translate(136.508205, 163.987512)"><path style="stroke:none;" d=""/></g></g><g style="fill:rgb(0%,0%,0%);fill-opacity:1;"><g transform="translate(145.931836, 163.987512)"><path style="stroke:none;" d="M 16.78125 -6.390625 C 16.632812 -4.328125 15.875 -2.703125 14.5 -1.515625 C 13.125 -0.328125 11.3125 0.265625 9.0625 0.265625 C 6.59375 0.265625 4.65625 -0.5625 3.25 -2.21875 C 1.84375 -3.875 1.140625 -6.148438 1.140625 -9.046875 L 1.140625 -10.21875 C 1.140625 -12.0625 1.460938 -13.6875 2.109375 -15.09375 C 2.753906 -16.5 3.679688 -17.578125 4.890625 -18.328125 C 6.097656 -19.078125 7.503906 -19.453125 9.109375 -19.453125 C 11.328125 -19.453125 13.113281 -18.859375 14.46875 -17.671875 C 15.820312 -16.492188 16.601562 -14.832031 16.8125 -12.6875 L 12.859375 -12.6875 C 12.753906 -13.925781 12.40625 -14.820312 11.8125 -15.375 C 11.21875 -15.9375 10.316406 -16.21875 9.109375 -16.21875 C 7.785156 -16.21875 6.796875 -15.742188 6.140625 -14.796875 C 5.492188 -13.847656 5.160156 -12.382812 5.140625 -10.40625 L 5.140625 -8.953125 C 5.140625 -6.878906 5.453125 -5.363281 6.078125 -4.40625 C 6.710938 -3.445312 7.707031 -2.96875 9.0625 -2.96875 C 10.28125 -2.96875 11.191406 -3.242188 11.796875 -3.796875 C 12.398438 -4.359375 12.742188 -5.222656 12.828125 -6.390625 Z M 16.78125 -6.390625 "/></g></g><g style="fill:rgb(0%,0%,0%);fill-opacity:1;"><g transform="translate(166.29785, 163.987512)"><path style="stroke:none;" d="M 17.484375 -9.15625 C 17.484375 -7.269531 17.148438 -5.613281 16.484375 -4.1875 C 15.816406 -2.769531 14.859375 -1.671875 13.609375 -0.890625 C 12.367188 -0.117188 10.941406 0.265625 9.328125 0.265625 C 7.742188 0.265625 6.328125 -0.113281 5.078125 -0.875 C 3.828125 -1.644531 2.859375 -2.738281 2.171875 -4.15625 C 1.484375 -5.570312 1.140625 -7.207031 1.140625 -9.0625 L 1.140625 -10 C 1.140625 -11.894531 1.476562 -13.5625 2.15625 -15 C 2.832031 -16.4375 3.789062 -17.535156 5.03125 -18.296875 C 6.28125 -19.066406 7.703125 -19.453125 9.296875 -19.453125 C 10.898438 -19.453125 12.320312 -19.066406 13.5625 -18.296875 C 14.8125 -17.535156 15.773438 -16.4375 16.453125 -15 C 17.140625 -13.5625 17.484375 -11.898438 17.484375 -10.015625 Z M 13.46875 -10.03125 C 13.46875 -12.039062 13.109375 -13.566406 12.390625 -14.609375 C 11.671875 -15.660156 10.644531 -16.1875 9.3125 -16.1875 C 7.976562 -16.1875 6.953125 -15.671875 6.234375 -14.640625 C 5.515625 -13.609375 5.148438 -12.09375 5.140625 -10.09375 L 5.140625 -9.15625 C 5.140625 -7.195312 5.5 -5.675781 6.21875 -4.59375 C 6.9375 -3.519531 7.972656 -2.984375 9.328125 -2.984375 C 10.660156 -2.984375 11.679688 -3.503906 12.390625 -4.546875 C 13.097656 -5.585938 13.457031 -7.101562 13.46875 -9.09375 Z M 13.46875 -10.03125 "/></g></g><g style="fill:rgb(0%,0%,0%);fill-opacity:1;"><g transform="translate(187.639455, 163.987512)"><path style="stroke:none;" d="M 17.328125 0 L 13.375 0 L 5.671875 -12.625 L 5.671875 0 L 1.71875 0 L 1.71875 -19.203125 L 5.671875 -19.203125 L 13.375 -6.546875 L 13.375 -19.203125 L 17.328125 -19.203125 Z M 17.328125 0 "/></g></g><g style="fill:rgb(0%,0%,0%);fill-opacity:1;"><g transform="translate(209.402935, 163.987512)"><path style="stroke:none;" d="M 13.265625 -7.84375 L 5.671875 -7.84375 L 5.671875 0 L 1.71875 0 L 1.71875 -19.203125 L 14.21875 -19.203125 L 14.21875 -15.984375 L 5.671875 -15.984375 L 5.671875 -11.03125 L 13.265625 -11.03125 Z M 13.265625 -7.84375 "/></g></g><g style="fill:rgb(0%,0%,0%);fill-opacity:1;"><g transform="translate(226.894931, 163.987512)"><path style="stroke:none;" d="M 5.921875 0 L 1.96875 0 L 1.96875 -19.203125 L 5.921875 -19.203125 Z M 5.921875 0 "/></g></g><g style="fill:rgb(0%,0%,0%);fill-opacity:1;"><g transform="translate(237.46554, 163.987512)"><path style="stroke:none;" d="M 16.90625 -2.421875 C 16.1875 -1.566406 15.175781 -0.90625 13.875 -0.4375 C 12.582031 0.03125 11.144531 0.265625 9.5625 0.265625 C 7.894531 0.265625 6.4375 -0.09375 5.1875 -0.8125 C 3.9375 -1.539062 2.96875 -2.59375 2.28125 -3.96875 C 1.601562 -5.351562 1.253906 -6.976562 1.234375 -8.84375 L 1.234375 -10.15625 C 1.234375 -12.070312 1.554688 -13.726562 2.203125 -15.125 C 2.847656 -16.53125 3.78125 -17.601562 5 -18.34375 C 6.21875 -19.082031 7.644531 -19.453125 9.28125 -19.453125 C 11.5625 -19.453125 13.34375 -18.910156 14.625 -17.828125 C 15.90625 -16.742188 16.664062 -15.164062 16.90625 -13.09375 L 13.046875 -13.09375 C 12.867188 -14.1875 12.476562 -14.988281 11.875 -15.5 C 11.28125 -16.007812 10.457031 -16.265625 9.40625 -16.265625 C 8.0625 -16.265625 7.035156 -15.757812 6.328125 -14.75 C 5.628906 -13.738281 5.273438 -12.238281 5.265625 -10.25 L 5.265625 -9.015625 C 5.265625 -7.003906 5.644531 -5.484375 6.40625 -4.453125 C 7.164062 -3.421875 8.285156 -2.90625 9.765625 -2.90625 C 11.253906 -2.90625 12.316406 -3.222656 12.953125 -3.859375 L 12.953125 -7.171875 L 9.34375 -7.171875 L 9.34375 -10.078125 L 16.90625 -10.078125 Z M 16.90625 -2.421875 "/></g></g><g style="fill:rgb(0%,0%,0%);fill-opacity:1;"><g transform="translate(258.556657, 163.987512)"><path style="stroke:none;" d="M 16.25 -19.203125 L 16.25 -6.546875 C 16.25 -4.453125 15.585938 -2.789062 14.265625 -1.5625 C 12.953125 -0.34375 11.160156 0.265625 8.890625 0.265625 C 6.648438 0.265625 4.867188 -0.328125 3.546875 -1.515625 C 2.222656 -2.703125 1.550781 -4.332031 1.53125 -6.40625 L 1.53125 -19.203125 L 5.484375 -19.203125 L 5.484375 -6.53125 C 5.484375 -5.269531 5.785156 -4.347656 6.390625 -3.765625 C 6.992188 -3.191406 7.828125 -2.90625 8.890625 -2.90625 C 11.109375 -2.90625 12.238281 -4.078125 12.28125 -6.421875 L 12.28125 -19.203125 Z M 16.25 -19.203125 "/></g></g><g style="fill:rgb(0%,0%,0%);fill-opacity:1;"><g transform="translate(279.028145, 163.987512)"><path style="stroke:none;" d="M 8.8125 -7.03125 L 5.671875 -7.03125 L 5.671875 0 L 1.71875 0 L 1.71875 -19.203125 L 8.84375 -19.203125 C 11.113281 -19.203125 12.863281 -18.691406 14.09375 -17.671875 C 15.320312 -16.660156 15.9375 -15.234375 15.9375 -13.390625 C 15.9375 -12.085938 15.648438 -11 15.078125 -10.125 C 14.515625 -9.25 13.660156 -8.550781 12.515625 -8.03125 L 16.671875 -0.1875 L 16.671875 0 L 12.421875 0 Z M 5.671875 -10.234375 L 8.859375 -10.234375 C 9.847656 -10.234375 10.613281 -10.484375 11.15625 -10.984375 C 11.707031 -11.492188 11.984375 -12.191406 11.984375 -13.078125 C 11.984375 -13.984375 11.722656 -14.691406 11.203125 -15.203125 C 10.691406 -15.722656 9.90625 -15.984375 8.84375 -15.984375 L 5.671875 -15.984375 Z M 5.671875 -10.234375 "/></g></g><g style="fill:rgb(0%,0%,0%);fill-opacity:1;"><g transform="translate(298.959105, 163.987512)"><path style="stroke:none;" d="M 12.546875 -3.953125 L 5.609375 -3.953125 L 4.296875 0 L 0.09375 0 L 7.234375 -19.203125 L 10.90625 -19.203125 L 18.09375 0 L 13.875 0 Z M 6.6875 -7.15625 L 11.484375 -7.15625 L 9.078125 -14.34375 Z M 6.6875 -7.15625 "/></g></g><g style="fill:rgb(0%,0%,0%);fill-opacity:1;"><g transform="translate(319.826101, 163.987512)"><path style="stroke:none;" d="M 16.15625 -15.984375 L 10.28125 -15.984375 L 10.28125 0 L 6.328125 0 L 6.328125 -15.984375 L 0.53125 -15.984375 L 0.53125 -19.203125 L 16.15625 -19.203125 Z M 16.15625 -15.984375 "/></g></g><g style="fill:rgb(0%,0%,0%);fill-opacity:1;"><g transform="translate(339.229717, 163.987512)"><path style="stroke:none;" d="M 5.921875 0 L 1.96875 0 L 1.96875 -19.203125 L 5.921875 -19.203125 Z M 5.921875 0 "/></g></g><g style="fill:rgb(0%,0%,0%);fill-opacity:1;"><g transform="translate(349.800327, 163.987512)"><path style="stroke:none;" d="M 17.484375 -9.15625 C 17.484375 -7.269531 17.148438 -5.613281 16.484375 -4.1875 C 15.816406 -2.769531 14.859375 -1.671875 13.609375 -0.890625 C 12.367188 -0.117188 10.941406 0.265625 9.328125 0.265625 C 7.742188 0.265625 6.328125 -0.113281 5.078125 -0.875 C 3.828125 -1.644531 2.859375 -2.738281 2.171875 -4.15625 C 1.484375 -5.570312 1.140625 -7.207031 1.140625 -9.0625 L 1.140625 -10 C 1.140625 -11.894531 1.476562 -13.5625 2.15625 -15 C 2.832031 -16.4375 3.789062 -17.535156 5.03125 -18.296875 C 6.28125 -19.066406 7.703125 -19.453125 9.296875 -19.453125 C 10.898438 -19.453125 12.320312 -19.066406 13.5625 -18.296875 C 14.8125 -17.535156 15.773438 -16.4375 16.453125 -15 C 17.140625 -13.5625 17.484375 -11.898438 17.484375 -10.015625 Z M 13.46875 -10.03125 C 13.46875 -12.039062 13.109375 -13.566406 12.390625 -14.609375 C 11.671875 -15.660156 10.644531 -16.1875 9.3125 -16.1875 C 7.976562 -16.1875 6.953125 -15.671875 6.234375 -14.640625 C 5.515625 -13.609375 5.148438 -12.09375 5.140625 -10.09375 L 5.140625 -9.15625 C 5.140625 -7.195312 5.5 -5.675781 6.21875 -4.59375 C 6.9375 -3.519531 7.972656 -2.984375 9.328125 -2.984375 C 10.660156 -2.984375 11.679688 -3.503906 12.390625 -4.546875 C 13.097656 -5.585938 13.457031 -7.101562 13.46875 -9.09375 Z M 13.46875 -10.03125 "/></g></g><g style="fill:rgb(0%,0%,0%);fill-opacity:1;"><g transform="translate(371.141932, 163.987512)"><path style="stroke:none;" d="M 17.328125 0 L 13.375 0 L 5.671875 -12.625 L 5.671875 0 L 1.71875 0 L 1.71875 -19.203125 L 5.671875 -19.203125 L 13.375 -6.546875 L 13.375 -19.203125 L 17.328125 -19.203125 Z M 17.328125 0 "/></g></g><g style="fill:rgb(0%,0%,0%);fill-opacity:1;"><g transform="translate(392.905412, 163.987512)"><path style="stroke:none;" d="M 11.671875 -5.03125 C 11.671875 -5.78125 11.40625 -6.351562 10.875 -6.75 C 10.34375 -7.15625 9.390625 -7.578125 8.015625 -8.015625 C 6.648438 -8.460938 5.566406 -8.898438 4.765625 -9.328125 C 2.585938 -10.503906 1.5 -12.09375 1.5 -14.09375 C 1.5 -15.132812 1.789062 -16.0625 2.375 -16.875 C 2.957031 -17.6875 3.796875 -18.316406 4.890625 -18.765625 C 5.992188 -19.222656 7.222656 -19.453125 8.578125 -19.453125 C 9.953125 -19.453125 11.175781 -19.203125 12.25 -18.703125 C 13.320312 -18.210938 14.15625 -17.515625 14.75 -16.609375 C 15.34375 -15.703125 15.640625 -14.675781 15.640625 -13.53125 L 11.6875 -13.53125 C 11.6875 -14.40625 11.40625 -15.085938 10.84375 -15.578125 C 10.289062 -16.066406 9.515625 -16.3125 8.515625 -16.3125 C 7.546875 -16.3125 6.789062 -16.101562 6.25 -15.6875 C 5.71875 -15.28125 5.453125 -14.742188 5.453125 -14.078125 C 5.453125 -13.453125 5.765625 -12.925781 6.390625 -12.5 C 7.023438 -12.082031 7.953125 -11.691406 9.171875 -11.328125 C 11.421875 -10.648438 13.0625 -9.804688 14.09375 -8.796875 C 15.125 -7.796875 15.640625 -6.550781 15.640625 -5.0625 C 15.640625 -3.40625 15.007812 -2.101562 13.75 -1.15625 C 12.488281 -0.207031 10.796875 0.265625 8.671875 0.265625 C 7.191406 0.265625 5.847656 -0.00390625 4.640625 -0.546875 C 3.429688 -1.085938 2.503906 -1.828125 1.859375 -2.765625 C 1.222656 -3.703125 0.90625 -4.789062 0.90625 -6.03125 L 4.875 -6.03125 C 4.875 -3.914062 6.140625 -2.859375 8.671875 -2.859375 C 9.609375 -2.859375 10.34375 -3.050781 10.875 -3.4375 C 11.40625 -3.820312 11.671875 -4.351562 11.671875 -5.03125 Z M 11.671875 -5.03125 "/></g></g><g style="fill:rgb(0%,0%,0%);fill-opacity:1;"><g transform="translate(412.20356, 163.987512)"><path style="stroke:none;" d=""/></g></g><g style="fill:rgb(0%,0%,0%);fill-opacity:1;"><g transform="translate(421.627197, 163.987512)"><path style="stroke:none;" d="M 12.546875 -3.953125 L 5.609375 -3.953125 L 4.296875 0 L 0.09375 0 L 7.234375 -19.203125 L 10.90625 -19.203125 L 18.09375 0 L 13.875 0 Z M 6.6875 -7.15625 L 11.484375 -7.15625 L 9.078125 -14.34375 Z M 6.6875 -7.15625 "/></g></g><g style="fill:rgb(0%,0%,0%);fill-opacity:1;"><g transform="translate(442.494192, 163.987512)"><path style="stroke:none;" d="M 8.8125 -7.03125 L 5.671875 -7.03125 L 5.671875 0 L 1.71875 0 L 1.71875 -19.203125 L 8.84375 -19.203125 C 11.113281 -19.203125 12.863281 -18.691406 14.09375 -17.671875 C 15.320312 -16.660156 15.9375 -15.234375 15.9375 -13.390625 C 15.9375 -12.085938 15.648438 -11 15.078125 -10.125 C 14.515625 -9.25 13.660156 -8.550781 12.515625 -8.03125 L 16.671875 -0.1875 L 16.671875 0 L 12.421875 0 Z M 5.671875 -10.234375 L 8.859375 -10.234375 C 9.847656 -10.234375 10.613281 -10.484375 11.15625 -10.984375 C 11.707031 -11.492188 11.984375 -12.191406 11.984375 -13.078125 C 11.984375 -13.984375 11.722656 -14.691406 11.203125 -15.203125 C 10.691406 -15.722656 9.90625 -15.984375 8.84375 -15.984375 L 5.671875 -15.984375 Z M 5.671875 -10.234375 "/></g></g><g style="fill:rgb(0%,0%,0%);fill-opacity:1;"><g transform="translate(462.425152, 163.987512)"><path style="stroke:none;" d="M 13.265625 -8.3125 L 5.671875 -8.3125 L 5.671875 -3.171875 L 14.578125 -3.171875 L 14.578125 0 L 1.71875 0 L 1.71875 -19.203125 L 14.5625 -19.203125 L 14.5625 -15.984375 L 5.671875 -15.984375 L 5.671875 -11.421875 L 13.265625 -11.421875 Z M 13.265625 -8.3125 "/></g></g><g style="fill:rgb(0%,0%,0%);fill-opacity:1;"><g transform="translate(480.312633, 163.987512)"><path style="stroke:none;" d=""/></g></g><g style="fill:rgb(0%,0%,0%);fill-opacity:1;"><g transform="translate(489.736247, 163.987512)"><path style="stroke:none;" d="M 5.671875 -3.171875 L 14.0625 -3.171875 L 14.0625 0 L 1.71875 0 L 1.71875 -19.203125 L 5.671875 -19.203125 Z M 5.671875 -3.171875 "/></g></g><g style="fill:rgb(0%,0%,0%);fill-opacity:1;"><g transform="translate(507.056834, 163.987512)"><path style="stroke:none;" d="M 17.484375 -9.15625 C 17.484375 -7.269531 17.148438 -5.613281 16.484375 -4.1875 C 15.816406 -2.769531 14.859375 -1.671875 13.609375 -0.890625 C 12.367188 -0.117188 10.941406 0.265625 9.328125 0.265625 C 7.742188 0.265625 6.328125 -0.113281 5.078125 -0.875 C 3.828125 -1.644531 2.859375 -2.738281 2.171875 -4.15625 C 1.484375 -5.570312 1.140625 -7.207031 1.140625 -9.0625 L 1.140625 -10 C 1.140625 -11.894531 1.476562 -13.5625 2.15625 -15 C 2.832031 -16.4375 3.789062 -17.535156 5.03125 -18.296875 C 6.28125 -19.066406 7.703125 -19.453125 9.296875 -19.453125 C 10.898438 -19.453125 12.320312 -19.066406 13.5625 -18.296875 C 14.8125 -17.535156 15.773438 -16.4375 16.453125 -15 C 17.140625 -13.5625 17.484375 -11.898438 17.484375 -10.015625 Z M 13.46875 -10.03125 C 13.46875 -12.039062 13.109375 -13.566406 12.390625 -14.609375 C 11.671875 -15.660156 10.644531 -16.1875 9.3125 -16.1875 C 7.976562 -16.1875 6.953125 -15.671875 6.234375 -14.640625 C 5.515625 -13.609375 5.148438 -12.09375 5.140625 -10.09375 L 5.140625 -9.15625 C 5.140625 -7.195312 5.5 -5.675781 6.21875 -4.59375 C 6.9375 -3.519531 7.972656 -2.984375 9.328125 -2.984375 C 10.660156 -2.984375 11.679688 -3.503906 12.390625 -4.546875 C 13.097656 -5.585938 13.457031 -7.101562 13.46875 -9.09375 Z M 13.46875 -10.03125 "/></g></g><g style="fill:rgb(0%,0%,0%);fill-opacity:1;"><g transform="translate(528.398415, 163.987512)"><path style="stroke:none;" d="M 16.78125 -6.390625 C 16.632812 -4.328125 15.875 -2.703125 14.5 -1.515625 C 13.125 -0.328125 11.3125 0.265625 9.0625 0.265625 C 6.59375 0.265625 4.65625 -0.5625 3.25 -2.21875 C 1.84375 -3.875 1.140625 -6.148438 1.140625 -9.046875 L 1.140625 -10.21875 C 1.140625 -12.0625 1.460938 -13.6875 2.109375 -15.09375 C 2.753906 -16.5 3.679688 -17.578125 4.890625 -18.328125 C 6.097656 -19.078125 7.503906 -19.453125 9.109375 -19.453125 C 11.328125 -19.453125 13.113281 -18.859375 14.46875 -17.671875 C 15.820312 -16.492188 16.601562 -14.832031 16.8125 -12.6875 L 12.859375 -12.6875 C 12.753906 -13.925781 12.40625 -14.820312 11.8125 -15.375 C 11.21875 -15.9375 10.316406 -16.21875 9.109375 -16.21875 C 7.785156 -16.21875 6.796875 -15.742188 6.140625 -14.796875 C 5.492188 -13.847656 5.160156 -12.382812 5.140625 -10.40625 L 5.140625 -8.953125 C 5.140625 -6.878906 5.453125 -5.363281 6.078125 -4.40625 C 6.710938 -3.445312 7.707031 -2.96875 9.0625 -2.96875 C 10.28125 -2.96875 11.191406 -3.242188 11.796875 -3.796875 C 12.398438 -4.359375 12.742188 -5.222656 12.828125 -6.390625 Z M 16.78125 -6.390625 "/></g></g><g style="fill:rgb(0%,0%,0%);fill-opacity:1;"><g transform="translate(548.764412, 163.987512)"><path style="stroke:none;" d="M 12.546875 -3.953125 L 5.609375 -3.953125 L 4.296875 0 L 0.09375 0 L 7.234375 -19.203125 L 10.90625 -19.203125 L 18.09375 0 L 13.875 0 Z M 6.6875 -7.15625 L 11.484375 -7.15625 L 9.078125 -14.34375 Z M 6.6875 -7.15625 "/></g></g><g style="fill:rgb(0%,0%,0%);fill-opacity:1;"><g transform="translate(569.631385, 163.987512)"><path style="stroke:none;" d="M 5.671875 -3.171875 L 14.0625 -3.171875 L 14.0625 0 L 1.71875 0 L 1.71875 -19.203125 L 5.671875 -19.203125 Z M 5.671875 -3.171875 "/></g></g></g></svg>